<svg width="159" height="197" viewBox="0 0 159 197" fill="none" xmlns="http://www.w3.org/2000/svg">
<path fill-rule="evenodd" clip-rule="evenodd" d="M101.968 56.7041L106.386 49.3627L108.596 54.4937C112.462 42.3391 119.565 33.6522 125.326 25.8356C130.689 18.4142 124.613 8.78509 117.515 6.89243C104.416 3.49668 109.781 10.8408 95.0241 4.99698C86.503 1.60124 74.8265 1.44375 66.3026 4.83673C51.468 10.6777 56.9139 3.33638 43.737 6.73213C36.6361 8.62756 30.6403 18.3368 36.0061 25.6782C41.6869 33.5721 48.7878 42.1789 52.6533 54.3334L54.231 48.8074L58.4915 55.8337L62.9096 46.9948L67.8803 53.9411L71.7457 45.967L75.9262 51.9683L79.7916 45.7321L84.5247 53.0707L88.5504 45.967L93.3608 55.0462L97.4639 46.8346L101.968 56.7041Z" fill="#894997"/>
<path fill-rule="evenodd" clip-rule="evenodd" d="M101.177 51.1781L99.2844 50.8631C101.65 41.6263 107.015 33.5749 112.381 25.4434C108.201 33.5749 103.94 41.549 101.177 51.1781Z" fill="#221F20" stroke="#221F20" stroke-width="0.2" stroke-miterlimit="10"/>
<path fill-rule="evenodd" clip-rule="evenodd" d="M93.2087 54.8887L92.6561 52.1257C94.3139 42.7342 99.0469 34.2076 103.625 25.761C100.23 34.1247 96.5243 42.4967 94.5515 52.286L93.2087 54.8887Z" fill="#221F20" stroke="#221F20" stroke-width="0.2" stroke-miterlimit="10"/>
<path fill-rule="evenodd" clip-rule="evenodd" d="M90.8432 49.1279L88.8704 47.4673C89.1826 39.018 92.7331 29.2287 96.6815 20.235C94.471 28.9192 91.393 39.3385 90.8432 49.1279Z" fill="#221F20" stroke="#221F20" stroke-width="0.2" stroke-miterlimit="10"/>
<path fill-rule="evenodd" clip-rule="evenodd" d="M86.818 49.9982L84.8452 52.2058C83.8201 42.1816 86.2654 30.4996 88.3183 20.2377C87.3706 30.0216 85.9504 39.4159 86.818 49.9982Z" fill="#221F20" stroke="#221F20" stroke-width="0.2" stroke-miterlimit="10"/>
<path fill-rule="evenodd" clip-rule="evenodd" d="M79.1641 46.4423L81.7696 46.3649C81.6094 33.2599 81.3718 24.7332 80.7418 11.6282C79.4017 25.366 80.0317 30.0217 79.1641 46.4423Z" fill="#221F20" stroke="#221F20" stroke-width="0.2" stroke-miterlimit="10"/>
<path fill-rule="evenodd" clip-rule="evenodd" d="M73.7987 49.7607L75.7715 51.891C76.8767 41.864 74.6691 30.0217 72.6161 19.8372C73.5611 29.5492 74.6663 39.1811 73.7987 49.7607Z" fill="#221F20" stroke="#221F20" stroke-width="0.2" stroke-miterlimit="10"/>
<path fill-rule="evenodd" clip-rule="evenodd" d="M70.01 48.9677L71.8253 47.705C71.2727 38.3881 67.8797 28.5987 63.7766 19.8372C66.1445 28.5241 69.2225 39.2585 70.01 48.9677Z" fill="#221F20" stroke="#221F20" stroke-width="0.2" stroke-miterlimit="10"/>
<path fill-rule="evenodd" clip-rule="evenodd" d="M67.4074 54.4937L67.96 51.6533C66.3022 42.259 61.804 33.7324 57.1511 25.2858C60.5441 33.7324 64.0946 42.0214 66.0673 51.8108L67.4074 54.4937Z" fill="#221F20" stroke="#221F20" stroke-width="0.2" stroke-miterlimit="10"/>
<path fill-rule="evenodd" clip-rule="evenodd" d="M59.5968 51.5732L61.4894 51.261C59.1243 42.0214 53.8359 33.8926 48.4701 25.8384C52.5732 33.97 56.8338 41.944 59.5968 51.5732Z" fill="#221F20" stroke="#221F20" stroke-width="0.2" stroke-miterlimit="10"/>
<path fill-rule="evenodd" clip-rule="evenodd" d="M94.5322 6.12784C86.3205 3.0074 74.9908 2.938 66.7926 6.05088L66.7886 6.05239C62.4359 7.68972 59.6625 8.30455 57.59 8.36043C55.7441 8.4102 54.4995 8.00444 53.4236 7.65368C53.2656 7.60219 53.1113 7.55188 52.9592 7.50438C50.5727 6.80276 47.709 6.87616 44.983 7.63816C42.2544 8.4009 39.7847 9.81955 38.1424 11.6706C35.1097 15.1435 34.0806 20.0001 37.0946 23.8866L37.1041 23.8987L37.104 23.8988C37.7531 24.7553 38.4243 25.6273 39.1098 26.5179C44.3644 33.3446 50.4629 41.2677 53.9608 51.7664L51.3394 52.6397C47.9986 42.6124 42.1947 35.0645 36.9287 28.2161C36.2433 27.3247 35.567 26.4452 34.9064 25.5735C30.8266 20.306 32.476 13.9557 36.0651 9.84874L36.0715 9.84142L36.0715 9.84144C38.1372 7.51105 41.1107 5.85167 44.2392 4.97715C47.3684 4.10245 50.774 3.97882 53.7512 4.85726L53.7715 4.86326L53.7715 4.86342C53.9582 4.92165 54.1353 4.97879 54.3061 5.03391C55.3564 5.37278 56.1682 5.63474 57.5155 5.59842C59.132 5.55483 61.5664 5.06461 65.8138 3.46704C74.6574 0.109797 86.6847 0.189756 95.5145 3.54531L95.5164 3.54603C101.446 5.80933 103.815 5.89469 105.367 5.60989C105.929 5.50685 106.354 5.37079 106.867 5.20641C107.171 5.10893 107.507 5.00149 107.92 4.88507C108.957 4.59308 110.167 4.36187 111.867 4.40613L111.871 4.40623C117.593 4.57172 123.155 6.57703 126.485 11.7441C129.077 15.7247 129.864 21.1101 126.434 25.7158L126.421 25.7324L126.421 25.7323C125.82 26.5146 125.207 27.3033 124.587 28.1013C119.211 35.0198 113.294 42.6341 109.906 52.7974L107.285 51.9237C110.831 41.285 117.042 33.3 122.403 26.4078C123.023 25.6104 123.632 24.8277 124.224 24.0572C126.782 20.6141 126.303 16.5276 124.168 13.2499L124.164 13.2439C121.493 9.0973 116.961 7.31803 111.793 7.16816C110.416 7.13251 109.486 7.31465 108.669 7.54468C108.444 7.60801 108.194 7.68721 107.925 7.77216C107.306 7.96809 106.591 8.1946 105.866 8.32753C103.552 8.75211 100.596 8.44244 94.5322 6.12784Z" fill="#221F20"/>
<path fill-rule="evenodd" clip-rule="evenodd" d="M73.4837 114.335L86.1881 114.175C94.9468 110.939 102.918 107.701 105.678 111.097C106.703 108.732 107.651 105.969 108.126 101.23C110.492 96.732 111.519 91.5182 111.519 85.8374C113.65 79.3637 113.807 72.9701 110.572 66.5765C111.677 60.0226 110.231 53.8006 106.382 49.3208C105.119 51.0587 103.551 52.6573 102.464 56.0237C100.794 51.8355 99.8447 49.3208 97.5882 47.3961C94.5875 49.764 93.767 52.684 93.1343 55.6045C92.1866 52.1314 90.8465 48.8959 88.7135 46.0528C86.1881 48.976 84.5303 51.9767 84.4529 54.9746C84.0578 50.8715 82.3226 48.1085 80.1923 45.8179C77.4788 48.0266 76.616 50.8472 75.7715 54.5048C74.7464 50.4791 73.3262 47.951 71.7485 46.2932C69.8133 48.0266 68.8178 50.5818 67.3577 54.9746C66.2553 51.8993 64.4873 49.2938 62.7522 47.4011C61.1745 49.4513 59.46 52.4733 58.4645 56.4885C56.7389 53.0042 56.208 51.2455 54.1837 49.3872C49.9694 53.3692 49.2576 59.2406 49.3377 66.3471C45.7071 73.6083 45.7872 80.4744 48.705 87.1885C49.02 93.8972 49.7301 97.9229 50.6778 99.8984C51.7029 105.424 52.8081 108.502 53.8331 110.398C55.7286 108.964 64.3298 111.177 73.4837 114.335Z" fill="#007241"/>
<path fill-rule="evenodd" clip-rule="evenodd" d="M106.247 47.43L107.242 48.347C109.568 50.4912 110.912 53.8684 111.625 57.3452C112.346 60.8604 112.466 64.6877 112.18 67.9594L109.427 67.7187C109.694 64.6715 109.578 61.116 108.918 57.9005C108.386 55.3044 107.526 53.06 106.337 51.463C105.016 53.2355 104.056 55.4688 103.377 57.9404L100.713 57.2085C101.613 53.9301 103.04 50.7668 105.309 48.4054L106.247 47.43Z" fill="#221F20"/>
<path fill-rule="evenodd" clip-rule="evenodd" d="M97.3925 45.3602L98.4058 46.294C101.215 48.8828 102.735 52.9054 103.381 56.899C104.03 60.9169 103.832 65.1388 102.989 68.3451L100.317 67.6426C101.051 64.8477 101.247 61.0181 100.653 57.3396C100.152 54.2379 99.1164 51.4056 97.5228 49.3967C96.101 51.2739 94.9785 53.6082 94.3058 56.117L91.637 55.4014C92.5544 51.9803 94.2327 48.7712 96.4561 46.3711L97.3925 45.3602Z" fill="#221F20"/>
<path fill-rule="evenodd" clip-rule="evenodd" d="M88.6592 44.3447L89.6545 45.2759C92.4595 47.9004 93.8763 52.3681 94.4505 56.6914C95.0316 61.0667 94.7961 65.6485 93.9954 68.8083L91.317 68.1297C92.0167 65.3684 92.255 61.1472 91.7116 57.0552C91.2509 53.5867 90.2608 50.4545 88.7257 48.3799C87.3493 50.1555 86.3093 52.3241 85.7089 54.6098L83.0365 53.9078C83.8757 50.7131 85.4804 47.652 87.7146 45.3274L88.6592 44.3447Z" fill="#221F20"/>
<path fill-rule="evenodd" clip-rule="evenodd" d="M80.3206 43.881L81.2582 44.8475C84.1487 47.827 85.5578 52.0238 86.2186 56.1718C86.8829 60.3426 86.8177 64.6412 86.6163 67.9964L83.8583 67.8308C84.0547 64.5575 84.1083 60.4884 83.49 56.6064C82.9596 53.2768 81.9544 50.2118 80.2328 47.8999C78.6341 49.9956 77.5471 53.1817 76.9958 56.7016C76.3467 60.8464 76.4934 65.1145 77.1888 67.8963L74.5083 68.5664C73.7034 65.347 73.5738 60.6947 74.2661 56.2741C74.9512 51.8998 76.4946 47.4071 79.3304 44.7936L80.3206 43.881Z" fill="#221F20"/>
<path fill-rule="evenodd" clip-rule="evenodd" d="M71.8322 44.3733L72.7828 45.2906C75.3811 47.7981 76.3963 51.0688 77.1913 54.3264L74.507 54.9815C73.8625 52.3401 73.1578 50.1354 71.8302 48.3721C70.4767 50.2313 69.5527 52.9561 69.0546 56.0476C68.4564 59.7598 68.5151 63.7354 69.0039 66.7474L66.2766 67.19C65.7403 63.8858 65.6815 59.6124 66.3268 55.6081C66.9637 51.6551 68.3303 47.6913 70.8733 45.2819L71.8322 44.3733Z" fill="#221F20"/>
<path fill-rule="evenodd" clip-rule="evenodd" d="M63.1223 45.3774L64.0614 46.3506C66.4989 48.8764 68.0033 52.2871 68.904 55.8123L66.227 56.4963C65.5364 53.7934 64.5024 51.3375 63.0424 49.406C61.7907 51.0891 60.9048 53.4874 60.3804 56.243C59.7386 59.6162 59.6808 63.3051 60.0221 66.3391L57.2764 66.6479C56.9075 63.3685 56.9672 59.3997 57.6661 55.7265C58.3569 52.096 59.7152 48.5279 62.1294 46.2956L63.1223 45.3774Z" fill="#221F20"/>
<path fill-rule="evenodd" clip-rule="evenodd" d="M54.2894 47.4326L55.2257 48.4041C57.6611 50.9309 59.1688 54.343 59.9946 57.8913L57.3035 58.5176C56.679 55.8342 55.659 53.3867 54.2041 51.4582C53.0743 52.9781 52.2367 55.1011 51.6947 57.5643C51.0169 60.6444 50.8434 64.065 51.0341 67.0378L48.2767 67.2146C48.0723 64.0286 48.2539 60.3441 48.9962 56.9705C49.7304 53.6341 51.0565 50.4043 53.296 48.3457L54.2894 47.4326Z" fill="#221F20"/>
<path fill-rule="evenodd" clip-rule="evenodd" d="M108.391 63.6964L109.306 64.3356C113.188 67.0441 114.718 71.6081 114.926 76.0302C115.135 80.4587 114.04 85.0358 112.33 88.1563L109.907 86.8286C111.355 84.1856 112.352 80.1185 112.166 76.16C112 72.6337 110.915 69.423 108.633 67.3296C106.964 69.2229 105.644 71.805 104.868 74.3919L102.222 73.5984C103.218 70.2762 105.058 66.8037 107.574 64.4581L108.391 63.6964Z" fill="#221F20"/>
<path fill-rule="evenodd" clip-rule="evenodd" d="M98.7474 61.5561L99.7012 62.358C102.831 64.9895 104.314 69.5534 104.86 73.9524C105.412 78.4026 105.051 83.0497 104.165 86.2078L101.505 85.4614C102.28 82.7011 102.631 78.4277 102.118 74.2926C101.672 70.697 100.606 67.4703 98.8469 65.3977C97.1713 67.3698 95.9345 69.8837 95.1698 72.5569L92.5133 71.797C93.5094 68.3152 95.2672 64.9226 97.8517 62.4225L98.7474 61.5561Z" fill="#221F20"/>
<path fill-rule="evenodd" clip-rule="evenodd" d="M89.0411 60.528L89.995 61.3304C93.1171 63.9567 94.6625 68.5295 95.2686 72.9574C95.8815 77.4342 95.5844 82.1258 94.6979 85.3348L92.0346 84.5991C92.806 81.8069 93.1016 77.4993 92.5311 73.3321C92.0366 69.7192 90.9277 66.4735 89.1583 64.3886C87.7189 66.2263 86.9857 68.4892 86.2589 71.2643L83.5861 70.5643C84.4556 67.2441 85.4761 63.9765 88.1452 61.3946L89.0411 60.528Z" fill="#221F20"/>
<path fill-rule="evenodd" clip-rule="evenodd" d="M80.4842 60.0713L81.3731 60.9109C84.5311 63.8939 85.895 67.8755 86.4312 71.8454C86.9661 75.8054 86.6962 79.9088 86.4609 83.2515L83.7047 83.0576C83.942 79.6862 84.1846 75.8543 83.6931 72.2152C83.2654 69.049 82.2962 66.1478 80.3789 63.875C78.4938 65.9751 77.199 69.2427 76.5361 72.8415C75.7751 76.9726 75.909 81.2071 76.7034 83.9501L74.0494 84.7187C73.1058 81.4604 73.0021 76.7745 73.8188 72.3409C74.6299 67.9376 76.4115 63.4472 79.5428 60.8516L80.4842 60.0713Z" fill="#221F20"/>
<path fill-rule="evenodd" clip-rule="evenodd" d="M70.6852 60.5448L71.58 61.3746C73.8951 63.5215 75.83 66.6463 76.8446 69.6899L74.2233 70.5637C73.4852 68.3492 72.1749 66.0831 70.625 64.3453C68.8341 66.4284 67.7132 69.6941 67.2152 73.3321C66.6448 77.4993 66.9404 81.8069 67.7117 84.5991L65.0484 85.3348C64.162 82.1258 63.8649 77.4342 64.4777 72.9573C65.0838 68.5295 66.6293 63.9567 69.7513 61.3304L70.6852 60.5448Z" fill="#221F20"/>
<path fill-rule="evenodd" clip-rule="evenodd" d="M60.9881 61.5672L61.8833 62.409C64.8643 65.2121 66.3658 69.0846 67.1826 73.0001L64.4778 73.5643C63.8173 70.3979 62.7306 67.5508 60.9023 65.3851C59.1077 67.4449 57.982 70.5792 57.4715 74.0464C56.8839 78.0371 57.1584 82.1613 57.9267 84.91L55.2657 85.6538C54.379 82.4814 54.1022 77.9615 54.738 73.6439C55.3682 69.3637 56.9425 64.97 60.0476 62.3582L60.9881 61.5672Z" fill="#221F20"/>
<path fill-rule="evenodd" clip-rule="evenodd" d="M51.3693 63.7056L52.1749 64.4603C54.8703 66.985 56.5525 70.4871 57.4623 74.0483L54.7853 74.7323C54.0665 71.9189 52.8521 69.3037 51.1003 67.3171C48.6488 69.5038 47.6887 72.8962 47.739 76.6305C47.7948 80.7844 49.1116 85.0356 50.6157 87.6764L48.2147 89.0438C46.4833 86.0039 45.0384 81.2959 44.9762 76.6676C44.9141 72.0489 46.2396 67.182 50.4554 64.3249L51.3693 63.7056Z" fill="#221F20"/>
<path fill-rule="evenodd" clip-rule="evenodd" d="M106.796 79.0353L107.699 79.6302C111.664 82.2433 113.168 86.4962 113.222 90.6317C113.275 94.743 111.909 98.9395 109.879 101.791L107.628 100.189C109.306 97.8317 110.505 94.2131 110.459 90.6673C110.418 87.5177 109.408 84.5886 107.065 82.6009C105.421 84.3372 103.874 86.6482 103.209 88.7727L100.572 87.9473C101.528 84.8931 103.827 81.7762 106.001 79.7687L106.796 79.0353Z" fill="#221F20"/>
<path fill-rule="evenodd" clip-rule="evenodd" d="M97.5623 76.8949L98.5919 77.8994C100.548 79.8078 101.817 82.6519 102.605 85.6726C103.4 88.7205 103.745 92.098 103.745 95.2288H100.982C100.982 92.2809 100.656 89.1446 99.9318 86.3701C99.375 84.2358 98.6048 82.4004 97.633 81.0262C96.051 83.0406 94.7328 85.407 94.0724 87.9918L91.3954 87.3078C92.3324 83.6405 94.3641 80.4498 96.6002 77.9643L97.5623 76.8949Z" fill="#221F20"/>
<path fill-rule="evenodd" clip-rule="evenodd" d="M88.5831 76.0713L89.5366 76.8956C91.5504 78.6369 92.8386 81.2055 93.6634 83.9347L93.6711 83.9603L93.6709 83.9604C94.0756 85.3997 94.1956 87.1048 94.2261 88.7099C94.2449 89.699 94.229 90.7433 94.2144 91.6932C94.2058 92.258 94.1977 92.7894 94.1977 93.2561H91.4347C91.4347 92.6965 91.4437 92.1294 91.4529 91.5517C91.4672 90.6516 91.4819 89.7257 91.4636 88.7624C91.4341 87.2147 91.3173 85.8053 91.0145 84.7208C90.4335 82.8027 89.6536 81.1689 88.6557 79.9456C87.2413 81.6532 86.2198 83.7876 85.5393 86.141L82.885 85.3736C83.798 82.2159 85.3182 79.2135 87.675 76.9453L88.5831 76.0713Z" fill="#221F20"/>
<path fill-rule="evenodd" clip-rule="evenodd" d="M80.3138 75.6134L81.2147 76.4632C83.5671 78.6819 84.8663 81.6047 85.6034 84.6072C86.3398 87.6066 86.539 90.7856 86.6184 93.6095L83.8565 93.6872C83.7784 90.9077 83.5838 87.9694 82.9201 85.266C82.3751 83.0463 81.5299 81.0529 80.2295 79.4545C79.0742 80.7971 78.1321 82.6334 77.461 84.7448C76.6231 87.3807 76.2493 90.3172 76.3614 92.9599L73.6009 93.0769C73.4753 90.1162 73.8904 86.8566 74.8278 83.9078C75.7592 80.9777 77.2486 78.2241 79.371 76.4164L80.3138 75.6134Z" fill="#221F20"/>
<path fill-rule="evenodd" clip-rule="evenodd" d="M71.4671 76.088L72.3726 76.9277C74.7672 79.1484 76.1978 82.3448 77.0925 85.2767L74.4498 86.0831C73.7553 83.8073 72.7816 81.6063 71.4116 79.9341C70.4164 81.1326 69.6161 82.7275 69.0314 84.5756C68.2807 86.9482 67.9214 89.6271 67.9214 92.1509H65.1584C65.1584 89.3863 65.5493 86.4217 66.3971 83.7422C67.2397 81.0789 68.5703 78.5838 70.5315 76.8941L71.4671 76.088Z" fill="#221F20"/>
<path fill-rule="evenodd" clip-rule="evenodd" d="M62.4933 76.9662L63.4267 77.9301C66.0618 80.6514 67.3168 84.272 68.1971 87.8776L65.513 88.533C64.7985 85.6068 63.9017 83.0232 62.4 80.9871C61.3704 82.3649 60.5962 84.2315 60.0686 86.4013L60.0602 86.4359L60.0598 86.4358C59.3151 89.188 59.0818 92.2839 59.1596 95.1947L56.3975 95.2685C56.3152 92.1893 56.556 88.8155 57.388 85.7313C58.1275 82.699 59.399 79.7921 61.5026 77.871L62.4933 76.9662Z" fill="#221F20"/>
<path fill-rule="evenodd" clip-rule="evenodd" d="M53.4806 78.9313L54.3833 79.7739C57.0156 82.2312 58.53 85.5883 59.4327 89.035L56.7598 89.735C56.0526 87.0345 54.9893 84.6084 53.3957 82.7355C51.0312 85.2722 50.3556 88.3895 50.5101 91.5494C50.6855 95.137 51.9316 98.6495 52.9095 101.116L50.341 102.134C49.346 99.6248 47.9494 95.7545 47.7504 91.6843C47.5493 87.5723 48.5716 83.1316 52.5424 79.7341L53.4806 78.9313Z" fill="#221F20"/>
<path fill-rule="evenodd" clip-rule="evenodd" d="M94.8636 90.6488C95.2378 90.8716 95.4851 91.2578 95.5308 91.6909C95.8247 94.478 96.0063 96.8065 95.9666 98.9476C96.4975 98.2773 97.0576 97.6515 97.6577 97.0748C99.8592 94.9593 102.539 93.5581 106.146 92.9207C106.731 92.8172 107.317 93.0997 107.6 93.6221C109.136 96.4526 110.356 99.4335 110.509 102.504C110.666 105.638 109.706 108.743 107.12 111.761C106.629 112.333 105.77 112.407 105.19 111.926C103.642 110.644 101.074 110.381 97.748 111.06C94.4916 111.724 90.8722 113.221 87.62 114.926C86.9442 115.28 86.1092 115.02 85.755 114.344C85.4007 113.668 85.6614 112.833 86.3372 112.479C89.7107 110.71 93.5873 109.089 97.1956 108.353C100.221 107.735 103.34 107.685 105.777 109.005C107.337 106.836 107.854 104.728 107.75 102.642C107.641 100.46 106.848 98.2085 105.646 95.8424C103.058 96.4495 101.161 97.5403 99.5722 99.067C97.751 100.817 96.2772 103.194 94.6732 106.287C94.3406 106.928 93.57 107.205 92.9053 106.922C92.2406 106.639 91.9064 105.891 92.1385 105.207C93.2988 101.787 93.4032 98.7618 92.9828 94.0205C91.5257 94.9656 90.2122 96.244 89.5985 97.3291C89.2229 97.9933 88.38 98.2272 87.7159 97.8516C87.0518 97.476 86.8179 96.6331 87.1935 95.969C88.3956 93.8434 91.1071 91.6008 93.6295 90.559C94.032 90.3927 94.4894 90.426 94.8636 90.6488Z" fill="#221F20"/>
<path fill-rule="evenodd" clip-rule="evenodd" d="M87.0241 91.0557C87.4036 91.1592 87.721 91.4196 87.8967 91.7716C90.116 96.219 91.1906 101.099 88.4084 105.944C88.0285 106.605 87.1841 106.834 86.5225 106.454C85.8608 106.074 85.6324 105.23 86.0123 104.568C87.8658 101.34 87.582 98.0196 86.1118 94.5008C84.8184 95.5745 83.8244 96.8335 83.1364 98.2955C82.231 100.22 81.8178 102.577 82.0395 105.465C82.0979 106.226 81.5285 106.89 80.7677 106.948C80.007 107.007 79.343 106.437 79.2846 105.677C79.0338 102.409 79.4895 99.5564 80.6364 97.1191C81.7856 94.6767 83.5907 92.7327 85.9088 91.2294C86.2389 91.0153 86.6446 90.9522 87.0241 91.0557Z" fill="#221F20"/>
<path fill-rule="evenodd" clip-rule="evenodd" d="M74.455 91.0571C74.8321 90.9527 75.2358 91.0131 75.5659 91.2233C77.9424 92.737 79.6957 94.6973 80.7728 97.165C81.843 99.6169 82.2075 102.481 81.9594 105.758C81.9018 106.519 81.2383 107.089 80.4775 107.031C79.7167 106.974 79.1466 106.31 79.2042 105.549C79.4286 102.587 79.083 100.201 78.2405 98.2703C77.6027 96.8092 76.6583 95.5586 75.3749 94.493C73.9007 98.0142 73.6164 101.338 75.4694 104.569C75.8491 105.23 75.6203 106.075 74.9584 106.454C74.2966 106.834 73.4523 106.605 73.0727 105.943C70.294 101.099 71.3651 96.2195 73.5879 91.771C73.7628 91.421 74.0779 91.1615 74.455 91.0571Z" fill="#221F20"/>
<path fill-rule="evenodd" clip-rule="evenodd" d="M65.8336 90.6488C66.2078 90.426 66.6652 90.3927 67.0678 90.559C68.3679 91.096 69.7266 91.967 70.8981 92.9282C72.062 93.8832 73.1344 95.0038 73.7962 96.0909C74.193 96.7426 73.9863 97.5925 73.3346 97.9893C72.6829 98.3861 71.833 98.1794 71.4362 97.5277C70.9928 96.7995 70.1711 95.9058 69.1454 95.0642C68.6852 94.6866 68.2029 94.335 67.7212 94.0254C67.3314 98.8007 67.5503 102.088 68.7161 105.522C68.9484 106.206 68.6142 106.954 67.9496 107.237C67.2849 107.52 66.5142 107.243 66.1815 106.602C64.5781 103.51 63.062 101.048 61.1932 99.2146C59.5609 97.6134 57.6273 96.4617 55.0477 95.8445C53.8478 98.2098 53.0535 100.463 52.9367 102.646C52.8251 104.733 53.3278 106.838 54.8521 109.001C57.2255 107.716 59.9857 107.896 62.6911 108.653C65.8529 109.537 69.2988 111.31 72.6192 113.031C73.2966 113.382 73.5611 114.216 73.21 114.893C72.8589 115.571 72.0251 115.835 71.3477 115.484C67.9624 113.729 64.7811 112.107 61.9465 111.313C59.1161 110.521 56.9916 110.656 55.4168 111.935C54.832 112.409 53.9748 112.328 53.4896 111.752C50.9453 108.732 50.0103 105.628 50.1777 102.499C50.3417 99.4321 51.559 96.4535 53.094 93.6226C53.3774 93.1 53.9634 92.8172 54.5488 92.9207C58.1774 93.5618 60.897 95.0536 63.1281 97.2422C63.7203 97.8231 64.2749 98.4503 64.8013 99.1182C64.7235 96.9034 64.8702 94.4992 65.1665 91.6909C65.2121 91.2578 65.4594 90.8716 65.8336 90.6488Z" fill="#221F20"/>
<path fill-rule="evenodd" clip-rule="evenodd" d="M72.7737 162.016C68.433 162.414 61.8846 164.542 59.9919 169.203C57.0714 169.203 54.2338 169.203 51.3907 169.203C51.9433 165.887 52.4959 162.334 53.1258 159.016C42.7894 160.914 43.657 174.016 26.7722 164.622C28.5875 162.094 30.4001 159.648 32.2154 157.2C24.9569 155.385 18.7235 166.987 10.9125 150.332C23.1444 145.911 20.8538 134.859 6.8094 135.254C5.5467 130.753 4.52164 127.44 3.18157 122.939C4.91675 122.229 6.17944 121.439 7.83725 121.361C5.15436 115.283 -2.10407 109.047 4.1293 102.653C0.813676 96.7318 8.86233 89.863 9.25744 89.1529C9.57242 84.3369 7.83726 81.4165 6.02195 78.6535C20.0664 68.6265 13.833 58.5221 8.23238 48.4979C18.0963 49.9982 25.3548 54.6566 27.9575 65.3108C28.6676 67.4411 31.2731 67.3637 33.4034 66.6509C29.4578 74.7051 26.3799 82.4415 32.8508 88.9153C28.9053 97.9945 31.5881 103.678 39.6368 106.679C38.9267 112.995 42.4772 116.23 49.6583 120.179C46.9754 122.309 33.4836 138.097 47.1329 131.703C50.291 130.283 51.8659 129.573 51.7886 134.071C53.2088 140.387 62.3626 126.572 63.07 135.649C63.5424 141.017 70.0134 144.571 73.0914 146.624C72.9339 134.309 73.1688 125.86 73.0113 113.545C77.8245 111.967 82.1652 112.045 86.1881 113.387C86.0306 125.702 86.1107 134.386 86.0306 146.701C89.0285 144.651 95.0242 141.017 95.5768 135.649C96.2869 126.572 105.438 140.387 106.861 134.071C106.701 129.573 108.359 130.283 111.437 131.703C125.086 138.097 111.594 122.312 108.989 120.179C116.17 116.23 119.64 112.995 118.933 106.679C127.059 103.678 129.664 97.9945 125.796 88.9153C132.267 82.4415 129.109 74.7051 125.163 66.6509C127.374 67.3637 129.976 67.4411 130.686 65.3108C133.212 54.6566 140.55 49.9982 150.414 48.4979C144.814 58.5221 138.578 68.6265 152.545 78.6535C150.732 81.4165 149.074 84.3369 149.309 89.1529C149.707 89.863 157.833 96.7318 154.437 102.653C160.751 109.047 153.412 115.283 150.81 121.361C152.387 121.439 153.65 122.229 155.465 122.939C154.125 127.44 153.1 130.753 151.757 135.254C137.79 134.859 135.502 145.911 147.654 150.332C139.923 166.987 133.687 155.385 126.351 157.2C128.164 159.648 129.979 162.094 131.875 164.622C114.91 174.013 115.855 160.911 105.521 159.016C106.071 162.331 106.703 165.885 107.256 169.203C104.416 169.203 101.495 169.203 98.6576 169.203C96.7622 164.542 90.2138 162.809 85.8731 162.334L86.0334 173.309C86.2682 182.073 93.2918 191.782 85.4006 194.308C79.8774 195.651 76.0893 194.623 73.8015 190.757C70.8782 187.118 72.0636 171.173 72.7737 162.016Z" fill="#007241"/>
<path fill-rule="evenodd" clip-rule="evenodd" d="M5.64965 46.7076L8.44012 47.1321C13.5232 47.9052 18.0573 49.5095 21.6781 52.3906C25.3051 55.2767 27.9145 59.3641 29.2838 64.9186C29.4406 65.3455 29.7482 65.5859 30.362 65.6822C31.0667 65.7927 32.0124 65.6596 32.965 65.3408L36.097 64.2927L34.6441 67.2586C32.665 71.2985 31.0147 75.0525 30.5924 78.5417C30.1834 81.922 30.9272 85.0367 33.8279 87.9386L34.4926 88.6036L34.1179 89.4659C32.2209 93.8311 32.0375 97.109 33.027 99.5591C34.011 101.996 36.2956 103.959 40.1194 105.384L41.1302 105.761L41.0097 106.833C40.6924 109.655 41.3177 111.666 42.7614 113.447C44.2754 115.313 46.7481 117.002 50.3239 118.968L52.1441 119.969L50.5173 121.261C49.96 121.703 48.6874 123 47.2647 124.672C45.8587 126.325 44.4053 128.229 43.4627 129.836C42.9855 130.65 42.686 131.31 42.5623 131.78C42.5577 131.798 42.5534 131.814 42.5494 131.83C42.6535 131.822 42.7872 131.806 42.9561 131.774C43.72 131.629 44.8798 131.233 46.5469 130.452L46.5662 130.443L46.6178 130.42C47.3676 130.083 48.1111 129.749 48.7684 129.53C49.4038 129.32 50.2263 129.119 51.0292 129.333C51.9878 129.588 52.5564 130.313 52.8449 131.156C53.0968 131.892 53.1812 132.824 53.1722 133.913C53.2606 134.241 53.3518 134.368 53.3853 134.405C53.4237 134.411 53.5223 134.414 53.7184 134.365C54.0721 134.277 54.5359 134.071 55.1276 133.744C55.5463 133.512 55.9676 133.257 56.4175 132.984C56.6019 132.872 56.7911 132.757 56.9868 132.64C57.6301 132.255 58.3317 131.851 59.0201 131.557C59.6884 131.27 60.4961 131.017 61.3209 131.085C62.2472 131.16 63.0553 131.629 63.6054 132.492C64.1026 133.272 64.3506 134.31 64.4467 135.534C64.6384 137.684 66.049 139.61 68.0168 141.343C69.2035 142.388 70.4905 143.28 71.682 144.061C71.6367 138.991 71.6533 134.533 71.6698 130.083L71.6699 130.079C71.6892 124.888 71.7085 119.707 71.6299 113.562L71.6169 112.548L72.581 112.232C77.6626 110.566 82.3078 110.636 86.6255 112.077L87.5824 112.396L87.5695 113.405C87.4751 120.789 87.4662 126.853 87.4569 133.187C87.4518 136.651 87.4466 140.195 87.4272 144.079C88.5253 143.311 89.697 142.431 90.7719 141.415C92.6115 139.677 93.9694 137.719 94.201 135.523C94.298 134.303 94.5464 133.269 95.0425 132.491C95.5927 131.629 96.4009 131.16 97.3272 131.085C98.152 131.017 98.9597 131.27 99.6281 131.557C100.316 131.851 101.018 132.255 101.661 132.64C101.857 132.757 102.046 132.872 102.231 132.984C102.681 133.257 103.102 133.512 103.521 133.744C104.112 134.071 104.576 134.277 104.93 134.365C105.127 134.414 105.225 134.411 105.264 134.405C105.297 134.368 105.387 134.244 105.474 133.924C105.447 132.838 105.519 131.906 105.765 131.168C106.048 130.315 106.62 129.588 107.579 129.333C108.382 129.119 109.205 129.319 109.839 129.532C110.51 129.756 111.264 130.102 112.015 130.449L112.023 130.452C113.69 131.233 114.849 131.629 115.613 131.774C115.784 131.806 115.919 131.823 116.024 131.831C116.02 131.814 116.015 131.797 116.011 131.778C115.888 131.308 115.59 130.649 115.115 129.835C114.177 128.228 112.73 126.324 111.334 124.67C109.923 122.998 108.66 121.695 108.113 121.248L106.532 119.953L108.323 118.968C111.897 117.003 114.347 115.316 115.841 113.453C117.265 111.676 117.877 109.663 117.56 106.832L117.439 105.757L118.454 105.383C122.315 103.957 124.598 101.994 125.581 99.5591C126.571 97.1069 126.387 93.8268 124.525 89.4567L124.159 88.5984L124.819 87.9386C127.716 85.0402 128.442 81.9297 128.015 78.5489C127.574 75.0573 125.904 71.3028 123.923 67.2586L122.492 64.3377L125.587 65.336C126.59 65.6594 127.558 65.7933 128.275 65.6819C128.897 65.5853 129.202 65.3452 129.359 64.9223C130.69 59.3635 133.302 55.2749 136.94 52.3893C140.571 49.5088 145.125 47.905 150.207 47.1321L152.997 46.7076L151.62 49.1717C151.478 49.4259 151.337 49.6792 151.195 49.9317C148.494 54.7573 145.97 59.2651 145.516 63.7148C145.284 65.9942 145.604 68.2381 146.761 70.4897C147.926 72.7579 149.983 75.114 153.35 77.5312L154.426 78.3037L153.7 79.4112C152.01 81.9876 150.581 84.5158 150.673 88.6238C150.707 88.66 150.744 88.6997 150.785 88.7431C150.832 88.7926 150.883 88.8459 150.937 88.9027C151.167 89.1438 151.457 89.4486 151.775 89.7969C152.564 90.6597 153.567 91.8327 154.454 93.1953C156.03 95.6175 157.48 99.0313 156.09 102.414C157.414 103.978 158.105 105.603 158.275 107.28C158.467 109.187 157.968 111.007 157.232 112.681C156.513 114.317 155.516 115.923 154.587 117.419L154.536 117.501C153.918 118.497 153.333 119.443 152.835 120.363C153.084 120.445 153.326 120.536 153.561 120.63C153.917 120.773 154.278 120.932 154.629 121.086L154.75 121.139C155.147 121.314 155.543 121.486 155.968 121.652L157.152 122.115L156.789 123.333C156.105 125.63 155.491 127.658 154.876 129.691C154.299 131.596 153.72 133.506 153.081 135.649L152.778 136.665L151.718 136.635C144.955 136.443 141.814 139.022 141.253 141.315C140.71 143.535 142.291 146.91 148.126 149.033L149.541 149.548L148.907 150.913C146.934 155.165 144.97 157.813 142.902 159.298C140.755 160.84 138.626 161.037 136.621 160.693C135.281 160.462 133.883 159.955 132.627 159.499C132.145 159.324 131.684 159.157 131.255 159.016C130.462 158.754 129.717 158.554 128.999 158.453C130.305 160.212 131.622 161.982 132.98 163.793L133.931 165.062L132.544 165.831C128.209 168.23 124.861 169.285 122.088 169.356C119.25 169.428 117.161 168.466 115.392 167.164C114.528 166.528 113.736 165.807 112.987 165.11C112.873 165.005 112.761 164.9 112.649 164.796C112.008 164.198 111.392 163.623 110.732 163.076C109.688 162.213 108.575 161.458 107.245 160.935C107.419 161.959 107.595 162.982 107.772 164.006C108.056 165.656 108.341 167.308 108.619 168.976L108.887 170.584H97.728L97.3779 169.723C96.6217 167.864 94.8823 166.467 92.6208 165.461C90.9098 164.7 89.0084 164.212 87.278 163.923L87.4144 173.272C87.4145 173.275 87.4145 173.277 87.4146 173.28C87.47 175.306 87.9193 177.43 88.4802 179.584C88.6621 180.283 88.8596 180.997 89.0572 181.711C89.4511 183.136 89.8453 184.562 90.1168 185.866C90.5251 187.828 90.7399 189.852 90.1777 191.614C89.5725 193.51 88.1473 194.879 85.8217 195.623L85.7748 195.639L85.727 195.65C82.8353 196.353 80.2386 196.478 77.9938 195.81C75.7298 195.136 73.9577 193.696 72.6598 191.54C72.174 190.905 71.8277 190.105 71.5681 189.258C71.2927 188.36 71.0891 187.323 70.9386 186.203C70.6376 183.963 70.5336 181.271 70.5436 178.451C70.5611 173.479 70.9343 167.979 71.2653 163.614C69.5894 163.912 67.7398 164.448 66.0645 165.255C63.8011 166.346 62.0364 167.84 61.272 169.723L60.922 170.584H49.7599L50.028 168.976C50.1654 168.151 50.3035 167.308 50.4431 166.455C50.7408 164.637 51.0458 162.774 51.3683 160.948C50.0489 161.471 48.9413 162.222 47.9005 163.08C47.237 163.626 46.6179 164.202 45.9741 164.8C45.8622 164.904 45.7495 165.009 45.6358 165.114C44.8833 165.811 44.0878 166.532 43.2222 167.167C41.4495 168.468 39.3588 169.43 36.5242 169.357C33.7543 169.286 30.4157 168.23 26.1005 165.829L24.7458 165.075L25.65 163.816C26.9569 161.996 28.2619 160.219 29.5648 158.457C28.864 158.559 28.1353 158.757 27.3575 159.015C26.9346 159.155 26.4803 159.321 26.0053 159.494C24.7501 159.951 23.3504 160.461 22.0052 160.693C19.9989 161.037 17.868 160.84 15.7127 159.3C13.6351 157.816 11.6559 155.17 9.6617 150.918L9.01868 149.547L10.4429 149.032C16.325 146.906 17.9141 143.528 17.3726 141.315C16.8124 139.025 13.656 136.443 6.84826 136.635L5.77049 136.665L5.47925 135.627C4.54725 132.305 3.74683 129.638 2.84843 126.644C2.53347 125.595 2.20645 124.505 1.85751 123.333L1.50054 122.134L2.65834 121.66C3.06523 121.494 3.44707 121.322 3.83756 121.146L3.84326 121.143C4.22569 120.97 4.62413 120.791 5.02525 120.63C5.2722 120.531 5.52593 120.438 5.78856 120.353C5.28229 119.436 4.69471 118.494 4.07737 117.504L4.07266 117.497C3.12428 115.976 2.10628 114.345 1.375 112.681C0.638675 111.006 0.140771 109.189 0.326721 107.284C0.4905 105.607 1.17304 103.979 2.48508 102.412C1.12864 99.0316 2.57447 95.6213 4.1419 93.1984C5.02289 91.8365 6.01752 90.6639 6.79979 89.8012C7.11495 89.4536 7.40223 89.1493 7.6295 88.9085C7.68364 88.8511 7.73438 88.7974 7.78127 88.7475C7.82579 88.7002 7.8659 88.6573 7.90194 88.6186C8.05819 84.5272 6.57471 82.0107 4.86735 79.412L4.13761 78.3013L5.21923 77.5291C8.60599 75.1111 10.6774 72.7542 11.8534 70.4854C13.0206 68.2336 13.347 65.9901 13.1194 63.712C12.6747 59.2615 10.1503 54.7523 7.44687 49.9234C7.30709 49.6737 7.16682 49.4231 7.02635 49.1717L5.64965 46.7076ZM53.3965 134.417C53.3966 134.417 53.398 134.418 53.3965 134.417V134.417ZM10.8853 50.4114C13.1946 54.5793 15.4239 58.9858 15.8687 63.4373C16.144 66.1916 15.7454 68.9808 14.3064 71.7569C13.0198 74.2391 10.9353 76.6461 7.88284 78.994C9.49395 81.5818 10.9374 84.635 10.636 89.243L10.6157 89.5531L10.4647 89.8246C10.3582 90.0159 10.2063 90.1885 10.138 90.2662L10.1356 90.2689C10.0388 90.3789 9.91938 90.5071 9.79405 90.6404C9.74231 90.6954 9.68813 90.7528 9.63161 90.8127C9.40515 91.0526 9.14123 91.3323 8.84667 91.6571C8.1123 92.4671 7.22791 93.5149 6.4618 94.6992C4.8768 97.1493 4.0749 99.7282 5.3347 101.978L5.83891 102.878L5.11849 103.617C3.74512 105.026 3.19586 106.332 3.07666 107.553C2.95427 108.806 3.2699 110.126 3.90437 111.569C4.54268 113.021 5.45058 114.485 6.42159 116.042L6.47352 116.125C7.40591 117.619 8.39618 119.206 9.10113 120.804L9.91496 122.647L7.90166 122.741C7.28503 122.77 6.71498 122.93 6.05161 123.196C5.71411 123.331 5.3691 123.486 4.97598 123.663L4.95696 123.672C4.92347 123.687 4.88968 123.702 4.85559 123.717C5.07346 124.446 5.28396 125.147 5.48973 125.833C6.29749 128.524 7.03226 130.973 7.85284 133.864C14.5046 133.951 19.0709 136.631 20.0565 140.658C21.0313 144.642 18.2303 148.659 12.8071 151.06C14.4645 154.295 15.9757 156.093 17.3186 157.052C18.7557 158.078 20.1014 158.216 21.5371 157.97C22.6248 157.783 23.6478 157.409 24.7996 156.988C25.3291 156.795 25.8859 156.592 26.4886 156.392C28.2801 155.799 30.3431 155.308 32.5505 155.86L34.557 156.362L33.3251 158.023C31.818 160.056 30.3176 162.08 28.8173 164.149C32.2239 165.891 34.7015 166.546 36.5952 166.595C38.6698 166.648 40.1741 165.977 41.5872 164.94C42.3144 164.406 43.0094 163.781 43.7583 163.087C43.8651 162.988 43.9732 162.888 44.0826 162.786C44.7242 162.19 45.4107 161.551 46.1432 160.948C47.8873 159.51 49.9827 158.188 52.8763 157.657L54.8591 157.293L54.4831 159.273C54.0151 161.739 53.5911 164.329 53.1745 166.873C53.1226 167.19 53.0708 167.506 53.0191 167.821H59.1181C60.3668 165.506 62.5708 163.872 64.8651 162.766C67.4531 161.519 70.3402 160.852 72.6476 160.641L74.2776 160.491L74.151 162.123C73.7955 166.708 73.326 172.934 73.3066 178.461C73.2968 181.227 73.4003 183.776 73.677 185.835C73.8153 186.864 73.9932 187.742 74.2097 188.448C74.4307 189.169 74.6677 189.63 74.8785 189.892L74.9402 189.969L74.9904 190.054C75.9762 191.719 77.2265 192.699 78.7817 193.161C80.3738 193.635 82.4171 193.606 85.0252 192.977C86.6119 192.459 87.2583 191.674 87.5455 190.774C87.8784 189.731 87.8023 188.306 87.4117 186.429C87.1575 185.208 86.8057 183.937 86.428 182.573C86.2246 181.838 86.0136 181.076 85.8064 180.28C85.2317 178.073 84.7154 175.699 84.6524 173.346L84.652 173.329L84.4689 160.791L86.0235 160.961C88.2805 161.208 91.1542 161.784 93.7439 162.937C96.0418 163.959 98.2685 165.505 99.5294 167.821H105.623C105.439 166.74 105.246 165.621 105.053 164.5C104.744 162.706 104.434 160.906 104.158 159.242L103.836 157.302L105.77 157.657C108.664 158.188 110.755 159.509 112.493 160.948C113.223 161.551 113.907 162.19 114.545 162.786C114.654 162.888 114.762 162.988 114.868 163.087C115.614 163.781 116.306 164.406 117.03 164.939C118.437 165.975 119.939 166.647 122.018 166.593C123.911 166.545 126.391 165.893 129.802 164.159C128.25 162.082 126.744 160.053 125.241 158.023L124.008 156.357L126.019 155.859C128.242 155.309 130.317 155.798 132.12 156.391C132.731 156.593 133.295 156.798 133.831 156.993C134.983 157.412 136.004 157.783 137.089 157.97C138.525 158.216 139.864 158.078 141.29 157.054C142.624 156.096 144.124 154.298 145.767 151.059C140.372 148.656 137.596 144.637 138.569 140.658C139.554 136.632 144.103 133.948 150.731 133.864C151.269 132.066 151.754 130.466 152.236 128.874C152.736 127.222 153.234 125.58 153.786 123.734C153.736 123.712 153.687 123.69 153.638 123.668L153.519 123.616C153.161 123.459 152.844 123.319 152.535 123.196C151.859 122.925 151.312 122.769 150.742 122.741L148.758 122.644L149.54 120.818C150.237 119.189 151.24 117.573 152.181 116.056L152.188 116.044C153.156 114.485 154.064 113.022 154.702 111.569C155.337 110.126 155.652 108.808 155.525 107.557C155.403 106.34 154.847 105.034 153.454 103.624L152.717 102.877L153.239 101.966C154.526 99.7206 153.731 97.1507 152.138 94.7022C151.368 93.5187 150.477 92.4713 149.736 91.6614C149.439 91.3358 149.172 91.0557 148.943 90.8154C148.887 90.7561 148.833 90.6993 148.781 90.6448C148.654 90.5116 148.534 90.3834 148.436 90.2734L148.434 90.2705C148.365 90.1929 148.212 90.0201 148.104 89.8282L147.945 89.5447L147.929 89.2202C147.706 84.6315 149.087 81.5924 150.689 78.9933C147.651 76.6441 145.579 74.2359 144.303 71.7526C142.876 68.9762 142.487 66.1875 142.767 63.4345C143.221 58.9843 145.452 54.5787 147.762 50.4108C144.211 51.2419 141.147 52.5791 138.657 54.554C135.543 57.0241 133.23 60.5697 132.031 65.6294L132.017 65.6893L131.997 65.7477C131.438 67.4248 130.086 68.1967 128.7 68.4121C128.331 68.4695 127.952 68.4901 127.571 68.4816C129.071 71.7169 130.352 75.0019 130.756 78.2025C131.244 82.0647 130.457 85.817 127.412 89.2171C129.12 93.574 129.437 97.3894 128.143 100.594C126.867 103.753 124.148 106.021 120.39 107.59C120.523 110.582 119.725 113.024 117.997 115.181C116.426 117.141 114.13 118.804 111.281 120.469C111.933 121.149 112.686 121.987 113.445 122.887C114.885 124.593 116.447 126.636 117.501 128.442C118.022 129.335 118.467 130.249 118.684 131.08C118.877 131.82 119.02 133.012 118.156 133.877C117.325 134.708 116.1 134.678 115.101 134.489C114.001 134.281 112.598 133.773 110.854 132.956C110.069 132.594 109.461 132.319 108.962 132.152C108.677 132.056 108.498 132.022 108.397 132.01C108.393 132.019 108.39 132.029 108.386 132.04C108.285 132.345 108.203 132.944 108.242 134.022L108.248 134.201L108.209 134.375C107.991 135.341 107.56 136.228 106.733 136.749C105.898 137.276 104.982 137.225 104.265 137.047C103.55 136.87 102.829 136.518 102.184 136.162C101.713 135.902 101.217 135.601 100.748 135.316C100.575 135.211 100.405 135.108 100.242 135.01C99.6079 134.631 99.0435 134.312 98.5401 134.096C98.0167 133.872 97.707 133.826 97.5517 133.838C97.5476 133.839 97.5435 133.839 97.5396 133.839C97.4924 133.842 97.4566 133.845 97.372 133.977C97.2285 134.202 97.0356 134.715 96.9541 135.757L96.9515 135.79C96.6256 138.957 94.711 141.495 92.6695 143.423C90.9252 145.072 88.9423 146.405 87.5008 147.375C87.2534 147.541 87.022 147.697 86.8105 147.841L84.632 149.331L84.6491 146.692C84.6811 141.781 84.6875 137.439 84.6938 133.21C84.7027 127.158 84.7113 121.336 84.7939 114.406C81.6026 113.525 78.1798 113.494 74.4051 114.563C74.4694 120.283 74.4511 125.189 74.4329 130.086L74.4329 130.089C74.4135 135.281 74.3942 140.461 74.4728 146.606L74.5063 149.228L72.3249 147.773C72.0238 147.572 71.6763 147.349 71.2954 147.104C69.8404 146.169 67.8975 144.92 66.1904 143.416C64.0371 141.519 61.9768 138.986 61.6938 135.77L61.6926 135.756C61.6115 134.715 61.4187 134.202 61.2754 133.977C61.1911 133.844 61.1554 133.842 61.1085 133.839C61.1045 133.839 61.1004 133.839 61.0963 133.838C60.9412 133.826 60.6315 133.872 60.1081 134.096C59.6047 134.312 59.0403 134.631 58.4064 135.01C58.2431 135.108 58.0733 135.211 57.8997 135.316C57.4313 135.601 56.9351 135.902 56.4638 136.162C55.8192 136.518 55.0987 136.87 54.3835 137.047C53.6664 137.225 52.7509 137.276 51.9151 136.749C51.0886 136.227 50.6579 135.34 50.4407 134.374L50.4044 134.213L50.4073 134.047C50.4259 132.966 50.3373 132.362 50.2308 132.051C50.2255 132.036 50.2205 132.022 50.2158 132.009C50.1147 132.021 49.933 132.055 49.6387 132.153C49.132 132.321 48.5163 132.596 47.7093 132.959C45.9685 133.774 44.5672 134.281 43.4689 134.489C42.47 134.677 41.2446 134.708 40.4137 133.875C39.5502 133.009 39.6956 131.816 39.8903 131.077C40.109 130.246 40.5554 129.332 41.0793 128.439C42.1388 126.632 43.7084 124.589 45.1601 122.882C45.9256 121.982 46.6868 121.143 47.3495 120.46C44.5046 118.8 42.1995 117.14 40.6153 115.187C38.8679 113.032 38.0482 110.587 38.1801 107.587C34.4558 106.018 31.7395 103.75 30.465 100.594C29.1705 97.3883 29.4878 93.5719 31.2301 89.2122C28.1892 85.817 27.3823 82.0702 27.8494 78.2098C28.237 75.0068 29.5021 71.7208 30.9974 68.4827C30.6393 68.488 30.2826 68.4665 29.9339 68.4118C28.5559 68.1957 27.2054 67.4231 26.6469 65.7477L26.629 65.6938L26.6155 65.6387C25.3777 60.5718 23.0626 57.0233 19.9577 54.5527C17.4771 52.5788 14.4283 51.2423 10.8853 50.4114Z" fill="#221F20"/>
<path fill-rule="evenodd" clip-rule="evenodd" d="M74.0362 185.588C73.8717 186.11 73.8314 186.871 74.1117 187.959L71.436 188.648C71.0656 187.21 71.0403 185.902 71.4009 184.757C71.7678 183.593 72.4993 182.711 73.4336 182.096C75.2285 180.914 77.7253 180.731 80.0334 181.012C82.3904 181.3 84.8451 182.105 86.756 183.227C87.7121 183.789 88.582 184.459 89.2334 185.23C89.8835 185.999 90.3779 186.946 90.4096 188.026L87.6478 188.107C87.6401 187.845 87.5156 187.478 87.1231 187.013C86.7319 186.55 86.1353 186.067 85.3568 185.61C83.7985 184.695 81.7113 184 79.6989 183.755C77.6377 183.504 75.9376 183.755 74.9533 184.403C74.498 184.703 74.1944 185.085 74.0362 185.588Z" fill="#221F20"/>
<path fill-rule="evenodd" clip-rule="evenodd" d="M9.91184 94.0935C8.47934 92.8757 8.58278 92.3294 8.63213 92.1362C8.68517 91.9285 8.83141 91.6452 9.15674 91.2377C9.45583 90.8631 9.8277 90.4765 10.2829 90.0033C10.325 89.9596 10.3678 89.9151 10.4113 89.8698L8.4191 87.9553C8.37276 88.0036 8.32591 88.0522 8.27871 88.1012C7.84508 88.5515 7.38142 89.0329 6.99747 89.5138C6.57031 90.0488 6.14892 90.6932 5.95502 91.4526C5.51052 93.1933 6.4029 94.738 8.12568 96.2015L8.12567 96.2015L8.13112 96.2061C9.05389 96.9819 9.65584 98.2345 10.4142 100.086C10.4823 100.252 10.5513 100.422 10.6217 100.596C11.1374 101.867 11.7274 103.32 12.5614 104.778C10.112 106.293 8.27111 109.018 7.08846 111.537C6.36231 113.084 5.83536 114.655 5.54615 116.016C5.40164 116.697 5.31135 117.349 5.29207 117.935C5.2736 118.497 5.31573 119.107 5.51776 119.64L8.10164 118.662C8.08677 118.622 8.04022 118.433 8.05359 118.026C8.06616 117.644 8.12822 117.159 8.24887 116.591C8.48999 115.455 8.9446 114.085 9.5896 112.711C10.9181 109.881 12.8644 107.425 15.0201 106.633L16.6965 106.016L15.6786 104.549C14.5528 102.925 13.8622 101.228 13.1749 99.5387C13.107 99.372 13.0393 99.2054 12.9711 99.039C12.2503 97.279 11.4326 95.3734 9.91184 94.0935Z" fill="#221F20"/>
<path d="M56.2815 152.147C49.2579 149.461 37.3438 157.2 37.1863 157.75C40.6567 153.567 48.3903 149.304 53.5986 150.014L56.2815 152.147Z" fill="#221F20"/>
<path d="M42.7895 148.359C34.7408 145.911 21.564 149.622 22.5117 149.384C26.8496 147.254 35.6084 144.648 40.5017 145.988L42.7895 148.359Z" fill="#221F20"/>
<path d="M25.0343 129.49C24.6392 126.727 26.5319 112.44 32.768 111.017C26.2197 118.043 26.2197 126.647 27.8747 135.331C24.2441 132.096 17.5383 128.62 13.2777 126.965L25.0343 129.49Z" fill="#221F20"/>
<path d="M21.3265 102.573C21.2491 94.9138 27.5599 87.0198 27.0072 87.7299C23.8519 90.9682 19.9063 94.8364 19.7488 99.4949L21.3265 102.573Z" fill="#221F20"/>
<path d="M64.3298 153.255C24.0892 150.492 21.6412 129.808 18.9611 102.968C19.196 82.1264 18.881 73.0471 18.7235 68.3113C22.0391 77.6282 20.6963 81.9662 21.8015 103.363C22.6691 126.572 25.6669 147.966 64.4099 150.809C66.6176 151.909 67.3277 152.465 64.3298 153.255Z" fill="#221F20"/>
<path fill-rule="evenodd" clip-rule="evenodd" d="M152.411 93.9198C152.036 94.7164 151.387 95.4633 150.518 96.2015L150.513 96.2061L150.513 96.2061C149.59 96.9817 148.989 98.234 148.231 100.086C148.163 100.251 148.095 100.42 148.025 100.592C147.509 101.864 146.919 103.319 146.083 104.778C148.534 106.293 150.374 109.019 151.55 111.541C152.271 113.089 152.791 114.662 153.069 116.028C153.208 116.711 153.292 117.366 153.302 117.957C153.311 118.524 153.256 119.141 153.034 119.679L150.48 118.623C150.495 118.589 150.546 118.406 150.539 118.004C150.533 117.626 150.477 117.145 150.362 116.579C150.132 115.448 149.685 114.081 149.045 112.708C147.728 109.881 145.781 107.425 143.624 106.633L141.947 106.016L142.966 104.548C144.094 102.924 144.784 101.225 145.472 99.5346C145.539 99.3693 145.606 99.2042 145.674 99.0392C146.394 97.2796 147.211 95.3737 148.732 94.0936C149.44 93.4915 149.769 93.0454 149.911 92.7424C150.034 92.4825 150.03 92.313 149.986 92.1487C149.929 91.9335 149.777 91.6454 149.451 91.2326C149.182 90.8926 148.864 90.55 148.483 90.14C148.396 90.0469 148.307 89.9504 148.214 89.8497L150.244 87.9754C150.32 88.0583 150.399 88.1428 150.479 88.2286C150.863 88.6415 151.274 89.0839 151.618 89.5189C152.037 90.0486 152.457 90.6881 152.657 91.44C152.87 92.2428 152.807 93.0797 152.411 93.9198Z" fill="#221F20"/>
<path d="M137.002 102.573C137.08 94.9138 130.766 87.0198 131.319 87.7299C134.477 90.9682 138.42 94.8364 138.577 99.4949L137.002 102.573Z" fill="#221F20"/>
<path d="M133.292 129.49C133.687 126.727 131.794 112.44 125.558 111.017C132.107 118.043 132.107 126.647 130.452 135.331C134.002 132.096 140.711 128.62 144.971 126.965L133.292 129.49Z" fill="#221F20"/>
<path d="M115.54 148.359C123.508 145.911 136.765 149.622 135.817 149.384C131.48 147.254 122.721 144.648 117.827 145.988L115.54 148.359Z" fill="#221F20"/>
<path d="M102.045 152.147C109.069 149.461 120.983 157.2 121.14 157.75C117.667 153.567 109.856 149.304 104.728 150.014L102.045 152.147Z" fill="#221F20"/>
<path d="M93.9967 153.255C134.237 150.492 136.685 129.808 139.368 102.968C139.131 82.1264 139.446 73.0471 139.606 68.3113C136.29 77.6282 137.553 81.9662 136.528 103.363C135.66 126.572 132.662 147.966 93.9193 150.809C91.7089 151.909 90.9214 152.465 93.9967 153.255Z" fill="#221F20"/>
</svg>
