<svg width="169" height="204" viewBox="0 0 169 204" fill="none" xmlns="http://www.w3.org/2000/svg">
<path fill-rule="evenodd" clip-rule="evenodd" d="M117.418 128.263C132.095 122.262 141.564 130.393 147.402 148.867C173.916 129.368 171.705 94.3164 150.718 83.817C125.466 73.0799 100.848 109.709 97.14 140.815C94.692 181.47 132.175 184.786 126.254 156.051C106.766 169.156 98.8752 138.052 117.418 128.263Z" fill="#1E4596"/>
<path fill-rule="evenodd" clip-rule="evenodd" d="M51.2987 128.263C36.6215 122.262 27.0753 130.393 21.3144 148.867C-5.27687 129.368 -2.98633 94.3164 17.9214 83.817C43.1726 73.0799 67.8685 109.709 71.5764 140.815C73.9443 181.47 36.464 184.786 42.3824 156.051C61.9501 169.156 69.8413 138.052 51.2987 128.263Z" fill="#1E4596"/>
<path fill-rule="evenodd" clip-rule="evenodd" d="M84.2005 201.126C89.4861 194.415 94.7746 188.889 100.848 184.391C92.799 165.445 84.9078 140.578 96.6645 112.154C104.79 91.5506 135.25 53.9736 107.791 23.7379C92.169 7.23717 93.9042 11.1855 84.5127 2.424C76.3066 10.0803 65.1799 19.2397 60.9193 23.7379C33.3803 53.9736 63.9172 91.5506 72.0432 112.154C83.7225 140.575 75.8313 165.442 67.8628 184.391C73.864 188.892 78.9148 194.418 84.2005 201.126Z" fill="#1E4596"/>
<path fill-rule="evenodd" clip-rule="evenodd" d="M114.759 95.7141C124.686 83.8287 137.779 76.7714 151.274 82.5093L151.314 82.5265L151.353 82.5461C162.432 88.0886 168.437 100.046 168.294 112.983C168.151 125.947 161.857 140 148.244 150.011L146.645 151.187L146.047 149.295C143.159 140.157 139.451 133.859 134.888 130.535C130.456 127.308 124.983 126.722 118.02 129.552C109.474 134.103 107.012 143.561 108.941 150.354C109.904 153.742 111.899 156.267 114.554 157.288C117.177 158.295 120.834 157.983 125.461 154.871L127.218 153.69L127.646 155.764C129.179 163.204 127.965 168.89 124.939 172.433C121.885 176.009 117.231 177.108 112.618 175.823C103.397 173.255 94.4753 161.426 95.7215 140.73L95.724 140.688L95.729 140.647C97.6137 124.836 104.799 107.641 114.759 95.7141ZM98.556 140.942C97.3685 160.874 105.957 171.018 113.381 173.085C117.093 174.119 120.546 173.2 122.778 170.587C124.811 168.207 126.028 164.185 125.213 158.359C120.822 160.812 116.839 161.21 113.535 159.94C109.809 158.509 107.336 155.103 106.208 151.13C103.96 143.217 106.808 132.257 116.754 127.006L116.816 126.974L116.88 126.948C124.564 123.806 131.143 124.292 136.561 128.238C141.492 131.83 145.251 138.143 148.127 146.524C159.937 137.141 165.324 124.513 165.452 112.951C165.585 100.879 160.005 90.0735 150.121 85.1076C138.377 80.139 126.552 86.0275 116.941 97.5359C107.361 109.006 100.387 125.658 98.556 140.942Z" fill="#221F20"/>
<path fill-rule="evenodd" clip-rule="evenodd" d="M18.5189 85.1071C8.67398 90.0728 3.09375 100.878 3.22671 112.951C3.35404 124.513 8.74048 137.14 20.5828 146.523C23.4278 138.141 27.1869 131.829 32.1274 128.237C37.5544 124.292 44.1524 123.806 51.8365 126.948L51.9007 126.974L51.9621 127.006C61.9087 132.257 64.7573 143.217 62.4983 151.132C61.3642 155.106 58.8827 158.51 55.1464 159.941C51.8317 161.21 47.8346 160.812 43.4238 158.355C42.6088 164.183 43.8261 168.206 45.8605 170.587C48.0933 173.2 51.5494 174.12 55.2671 173.085C62.7016 171.017 71.3079 160.871 70.1603 140.941C68.3292 125.658 61.3362 109.007 51.7379 97.5369C42.1071 86.0283 30.2628 80.1391 18.5189 85.1071ZM53.9174 95.713C63.8978 107.639 71.1026 124.835 72.9875 140.647L72.9925 140.69L72.995 140.733C74.2005 161.429 65.2577 173.256 56.0289 175.823C51.4123 177.108 46.756 176.01 43.6998 172.433C40.6722 168.89 39.4582 163.204 40.9906 155.764L41.417 153.694L43.1731 154.87C47.82 157.982 51.4945 158.296 54.1301 157.287C56.7973 156.266 58.7987 153.739 59.7654 150.352C61.7038 143.56 59.243 134.103 50.6961 129.552C43.7338 126.722 38.2403 127.307 33.7985 130.536C29.227 133.859 25.5193 140.156 22.671 149.29L22.0786 151.189L20.4741 150.013C6.82159 140.002 0.527627 125.947 0.384848 112.983C0.242386 100.047 6.24591 88.0901 17.2837 82.5471L17.3239 82.5269L17.3654 82.5093C30.8591 76.7716 43.9718 83.8282 53.9174 95.713Z" fill="#221F20"/>
<path fill-rule="evenodd" clip-rule="evenodd" d="M110.374 115.926C118.417 104.665 134.141 99.3645 145.683 107.476C151.35 111.45 153.144 117.978 153.174 123.684C153.189 126.545 152.763 129.239 152.135 131.37C151.822 132.436 151.454 133.374 151.058 134.128C150.67 134.866 150.223 135.493 149.719 135.864C149.461 136.055 149.106 136.048 148.855 135.847C148.603 135.647 148.518 135.303 148.646 135.008C153.121 124.744 150.77 116.285 145.346 111.469C139.899 106.632 131.207 105.334 122.721 109.713C113.723 114.406 106.566 125.638 104.387 136.223C103.14 142.187 103.037 148.644 104.789 153.883C106.529 159.086 110.082 163.071 116.215 164.275C116.565 164.344 116.81 164.662 116.787 165.018C116.764 165.375 116.479 165.659 116.123 165.681C111.527 165.974 107.989 164.071 105.532 160.785C103.099 157.532 101.741 152.951 101.355 147.845C100.584 137.635 103.679 125.033 110.374 115.926Z" fill="#221F20"/>
<path fill-rule="evenodd" clip-rule="evenodd" d="M58.3427 115.927C50.3019 104.665 34.4973 99.3649 22.9561 107.475C17.2875 111.45 15.5139 117.981 15.5036 123.686C15.4985 126.548 15.9349 129.241 16.5697 131.373C16.8871 132.438 17.2579 133.376 17.6561 134.13C18.0456 134.867 18.4946 135.493 18.9973 135.864C19.256 136.055 19.6106 136.048 19.8619 135.847C20.1133 135.647 20.1987 135.303 20.0702 135.008C15.5959 124.744 17.9468 116.285 23.372 111.469C28.8196 106.633 37.511 105.334 45.9967 109.712C54.9155 114.406 62.073 125.638 64.252 136.223L64.2533 136.229C65.5381 142.192 65.6602 148.646 63.9183 153.885C62.1885 159.086 58.6363 163.071 52.5017 164.275C52.1513 164.344 51.9064 164.662 51.9296 165.018C51.9529 165.375 52.2371 165.659 52.5935 165.681C57.1898 165.974 60.724 164.071 63.1753 160.785C65.6024 157.531 66.953 152.95 67.3336 147.844C68.0945 137.635 64.9983 125.033 58.3427 115.927Z" fill="#221F20"/>
<path fill-rule="evenodd" clip-rule="evenodd" d="M84.5127 0.480572L85.4821 1.38494C88.8947 4.56868 90.7821 6.02261 92.6376 7.45187C93.3081 7.96844 93.9745 8.48178 94.7072 9.07241C97.4726 11.3015 100.995 14.4922 108.823 22.7609L108.843 22.7824L108.843 22.7826C123.053 38.4293 122.205 55.9965 116.922 72.0035C114.285 79.9915 110.529 87.6487 106.954 94.5524C106.215 95.9801 105.486 97.372 104.776 98.7263C102.027 103.971 99.573 108.653 97.9864 112.676L97.9778 112.698L97.9776 112.698C86.4466 140.575 94.147 164.984 102.156 183.835L102.594 184.866L101.693 185.533C95.7531 189.933 90.5528 195.357 85.3169 202.006L84.2007 203.423L83.0843 202.006C77.8326 195.34 72.87 189.922 67.0102 185.528L66.123 184.862L66.5529 183.84C74.4834 164.981 82.1847 140.571 70.7289 112.695L70.7212 112.676L70.7213 112.676C69.1324 108.647 66.6703 103.957 63.9121 98.7025C63.2052 97.356 62.4789 95.9723 61.7428 94.5533C58.1619 87.6497 54.399 79.9923 51.7577 72.0042C46.4645 55.9963 45.6174 38.4279 59.8687 22.781L59.8874 22.7605L59.8876 22.7607C62.0735 20.453 65.9787 16.9891 70.299 13.1972C70.8403 12.7222 71.3888 12.2414 71.9421 11.7563C75.8348 8.34392 79.9684 4.72032 83.5433 1.38498L84.5127 0.480572ZM84.5146 4.36041C81.139 7.47379 77.3591 10.7873 73.8134 13.8954C73.2603 14.3802 72.713 14.86 72.1738 15.3333C67.8207 19.1539 64.0373 22.5144 61.9605 24.7051C48.6825 39.2913 49.3352 55.6252 54.4561 71.112C57.0223 78.8731 60.6961 86.3629 64.2657 93.2447C64.9787 94.6193 65.6896 95.9732 66.3872 97.3018C69.1533 102.57 71.7103 107.44 73.3613 111.623C85.0485 140.072 77.4575 165.009 69.5967 183.927C74.9306 188.077 79.5282 193.029 84.202 198.846C88.9155 193.012 93.7039 188.064 99.1076 183.923C91.1704 165.005 83.5845 140.07 95.3469 111.622C96.9952 107.445 99.5435 102.585 102.3 97.3265C103.001 95.9903 103.715 94.6284 104.431 93.2456C107.994 86.3639 111.661 78.874 114.223 71.1127C119.335 55.6252 119.988 39.2903 106.749 24.7041C98.9625 16.4801 95.543 13.3965 92.9236 11.2851C92.2445 10.7376 91.6065 10.2462 90.9518 9.7419C89.2553 8.43504 87.4461 7.04145 84.5146 4.36041Z" fill="#221F20"/>
<path d="M82.4624 192.207L83.6477 13.559H85.1481L86.2505 192.207H82.4624Z" fill="#221F20"/>
<path fill-rule="evenodd" clip-rule="evenodd" d="M53.2715 147.999L48.4556 141.92L53.5064 135.684L114.105 135.922L119.866 141.763L115.053 147.761L53.2715 147.999Z" fill="#1E4596"/>
<path fill-rule="evenodd" clip-rule="evenodd" d="M52.8309 134.261L114.702 134.503L121.766 141.666L115.736 149.18L52.5866 149.423L46.6349 141.911L52.8309 134.261ZM54.182 137.108L50.2764 141.93L53.9566 146.575L114.369 146.343L117.966 141.86L113.508 137.341L54.182 137.108Z" fill="#221F20"/>
<path fill-rule="evenodd" clip-rule="evenodd" d="M119.551 142.552H48.693V140.974H119.551V142.552Z" fill="#221F20"/>
</svg>
