<svg width="151" height="238" viewBox="0 0 151 238" fill="none" xmlns="http://www.w3.org/2000/svg">
<path fill-rule="evenodd" clip-rule="evenodd" d="M75.8904 149.376C78.0207 153.875 80.466 158.061 83.7788 161.531L84.8067 176.531C84.884 182.135 89.6171 190.899 100.114 188.451C119.206 182.135 131.911 199.975 148.718 193.109C145.168 202.899 136.804 208.74 114.631 201.161C109.268 199.345 97.4281 199.111 96.088 201.874C109.737 206.609 107.212 216.004 120.784 214.584C117.391 223.425 94.6679 223.505 83.6213 208.347C82.5963 218.372 78.0207 234.317 71.3121 235.817C75.3378 229.424 65.6313 215.609 67.2864 207.872C56.2398 223.027 33.8318 223.188 30.3586 214.346C44.0079 215.769 41.4826 206.372 55.0545 201.636C53.7144 198.873 41.8777 199.111 36.5119 200.923C14.3387 208.425 6.05518 202.584 2.5047 192.872C19.232 199.66 31.9363 181.9 51.0288 188.213C61.5227 190.661 66.2585 181.82 66.416 176.294L67.1261 161.691C70.1295 158.298 73.2075 153.875 75.8904 149.376Z" fill="#F4B344"/>
<path fill-rule="evenodd" clip-rule="evenodd" d="M75.3376 151.272C67.2889 163.191 59.4779 175.349 40.46 173.848C40.775 172.113 42.3555 169.27 42.6705 167.535C31.7013 172.348 23.6554 172.271 20.5774 165.639C30.8337 160.428 40.8552 154.112 50.324 146.061C43.6956 148.191 37.0671 148.271 30.9138 146.771C34.3869 143.85 38.805 140.535 40.8579 135.796C31.6267 140.059 22.1578 139.349 15.2917 135.246C26.4958 130.668 39.5952 123.879 45.4335 112.905C36.2796 116.773 28.5487 116.063 24.208 110.774C34.5444 105.326 44.8035 99.327 53.9546 90.4854C47.1687 93.486 40.3827 95.6965 33.8343 93.6435C37.5423 90.8805 42.0405 87.0897 42.0405 83.7768C33.4392 86.0673 25.0756 86.5398 19.1572 82.119C30.2839 77.303 40.5402 72.4098 47.0885 60.8051C37.4622 63.7256 30.4386 64.4357 26.9682 58.5947C35.4894 55.1989 42.513 49.2778 50.639 43.4368C44.5631 43.3566 40.6175 43.9092 36.4343 41.8591C51.5839 32.1471 64.4458 19.5975 75.4923 4.12457C86.4615 19.5975 99.9533 31.9122 115.023 41.6215C112.5 44.4646 106.739 43.6744 100.663 42.7267C108.712 48.4903 115.106 55.2017 123.704 58.5947C119.996 65.3834 113.368 64.5158 103.979 60.0922C111.16 71.0669 121.574 77.2229 131.673 82.9064C124.964 85.9071 117.626 85.7496 109.104 83.5392C112.732 90.5655 113.998 90.5655 117.706 93.4059C111.077 95.4588 105.396 93.8811 98.6105 90.8805C107.684 99.7222 115.968 104.853 126.304 110.302C121.886 115.51 114.785 116.538 105.634 112.67C111.79 123.407 125.517 129.958 136.171 135.089C130.648 140.062 118.968 140.062 109.737 135.799C111.79 140.537 117.156 144.168 120.234 147.484C114.078 148.984 107.527 147.644 100.901 145.511C110.37 153.64 119.759 159.879 130.018 165.09C126.94 171.801 119.759 172.193 108.789 167.377C109.187 169.115 109.814 172.116 110.212 173.851C91.1172 175.346 83.4636 163.191 75.3376 151.272Z" fill="#F4B344"/>
<path fill-rule="evenodd" clip-rule="evenodd" d="M67.3814 160.55C68.23 160.601 68.8767 161.33 68.8257 162.179L67.9596 176.603C67.8646 179.745 66.5119 183.703 63.7095 186.595C60.8234 189.573 56.4698 191.338 50.6954 190.036C50.6466 190.025 50.5985 190.011 50.551 189.995C41.5686 187.026 34.0968 189.674 26.4119 192.477C26.3078 192.515 26.2037 192.553 26.0996 192.591C19.5895 194.968 12.8149 197.441 5.31827 195.638C7.00311 198.714 9.4183 201.012 13.0132 202.199C17.8288 203.79 25.0556 203.495 36.0242 199.785C38.9303 198.802 43.421 198.282 47.3223 198.343C49.2821 198.373 51.1812 198.551 52.7175 198.927C53.4843 199.114 54.2183 199.364 54.8406 199.707C55.4487 200.041 56.0842 200.538 56.4451 201.282C56.6374 201.679 56.6505 202.138 56.4813 202.545C56.312 202.952 55.9765 203.267 55.5597 203.41C49.9878 205.322 47.3655 208.033 44.9069 210.575C44.5473 210.947 44.1912 211.315 43.8299 211.677C42.3981 213.109 40.8328 214.482 38.6464 215.361C37.1749 215.952 35.4881 216.293 33.4533 216.341C34.2547 217.023 35.2945 217.609 36.5651 218.065C39.0605 218.962 42.2883 219.292 45.816 218.898C52.8728 218.11 60.8169 214.462 66.0477 207.283C66.4757 206.696 67.2565 206.488 67.9201 206.785C68.5837 207.081 68.9494 207.802 68.7971 208.513C68.4584 210.093 68.6819 212.106 69.2806 214.498C69.7648 216.433 70.4522 218.466 71.1624 220.567C71.325 221.048 71.4889 221.533 71.6518 222.021C72.5083 224.587 73.337 227.238 73.6773 229.681C73.8051 230.599 73.8696 231.524 73.8308 232.43C74.1159 232.121 74.4035 231.773 74.6927 231.385C75.9677 229.674 77.141 227.366 78.1688 224.724C80.2228 219.442 81.595 213.087 82.0954 208.194C82.1602 207.559 82.6095 207.031 83.2251 206.864C83.8407 206.698 84.4952 206.928 84.8708 207.443C90.0945 214.61 98.1079 218.203 105.237 218.936C108.8 219.302 112.062 218.945 114.578 218.027C115.868 217.557 116.918 216.958 117.722 216.266C115.697 216.221 114.018 215.883 112.552 215.296C110.375 214.424 108.815 213.058 107.383 211.631C107.025 211.273 106.671 210.909 106.313 210.54C103.849 208.002 101.205 205.279 95.5889 203.331C95.1734 203.187 94.8395 202.872 94.6712 202.466C94.503 202.059 94.5165 201.6 94.7084 201.205C95.0693 200.461 95.7048 199.964 96.3129 199.629C96.9352 199.287 97.6693 199.036 98.4361 198.849C99.9726 198.473 101.872 198.295 103.832 198.264C107.734 198.203 112.225 198.722 115.13 199.705L115.134 199.707C126.1 203.456 133.348 203.77 138.184 202.188C141.795 201.006 144.225 198.708 145.915 195.633C138.378 197.438 131.579 194.942 125.051 192.546L124.748 192.434C117.051 189.61 109.581 186.945 100.603 189.915C100.559 189.93 100.514 189.942 100.469 189.953C94.694 191.3 90.3341 189.558 87.4528 186.584C84.6605 183.702 83.3268 179.743 83.2734 176.592L82.4079 162.179C82.3569 161.33 83.0036 160.601 83.8523 160.55C84.701 160.499 85.4302 161.145 85.4812 161.994L86.3488 176.442C86.3502 176.465 86.3511 176.489 86.3514 176.513C86.3852 178.96 87.4572 182.164 89.664 184.442C91.7829 186.629 95.0177 188.043 99.7042 186.97C109.781 183.662 118.185 186.746 125.795 189.539L125.809 189.544C133.552 192.386 140.367 194.863 148.141 191.687C148.705 191.457 149.351 191.58 149.79 192.002C150.229 192.424 150.378 193.065 150.171 193.637C148.29 198.823 145.033 203.186 139.141 205.114C133.364 207.005 125.343 206.451 114.14 202.621C111.682 201.789 107.573 201.284 103.88 201.342C102.32 201.367 100.897 201.492 99.7513 201.713C104.042 203.767 106.494 206.299 108.538 208.41C108.887 208.771 109.225 209.119 109.557 209.451C110.898 210.787 112.103 211.8 113.697 212.438C115.285 213.074 117.406 213.393 120.629 213.055C121.161 212.999 121.685 213.224 122.011 213.649C122.337 214.074 122.418 214.638 122.227 215.137C121.164 217.908 118.66 219.816 115.633 220.919C112.59 222.029 108.845 222.402 104.922 221.998C98.0534 221.292 90.3957 218.178 84.6878 212.05C83.9756 216.479 82.7328 221.482 81.0382 225.84C79.9554 228.624 78.6629 231.21 77.1611 233.225C75.6792 235.213 73.8534 236.83 71.6535 237.322C71.0469 237.458 70.4183 237.216 70.0598 236.708C69.7014 236.2 69.6836 235.526 70.0146 235C70.7363 233.853 70.9262 232.248 70.6279 230.106C70.3314 227.978 69.5914 225.572 68.7314 222.996C68.5779 222.536 68.4205 222.071 68.2618 221.602C67.5492 219.495 66.8114 217.314 66.2938 215.246C66.0592 214.308 65.8608 213.362 65.7298 212.425C60.1056 218.212 52.7682 221.219 46.1578 221.958C42.2683 222.392 38.5522 222.051 35.5243 220.963C32.5093 219.88 30.0154 217.988 28.9312 215.226C28.7348 214.726 28.8136 214.16 29.1389 213.732C29.4642 213.304 29.989 213.077 30.5235 213.133C33.7653 213.47 35.9002 213.146 37.4989 212.504C39.1019 211.86 40.3127 210.84 41.6523 209.5C41.9865 209.166 42.3253 208.814 42.6759 208.451C44.71 206.342 47.1425 203.82 51.3901 201.788C50.2469 201.569 48.8289 201.445 47.2744 201.421C43.5808 201.364 39.4704 201.87 37.0107 202.702C25.8061 206.491 17.8044 207.025 12.0473 205.123C6.17566 203.183 2.94233 198.819 1.063 193.637C0.855266 193.064 1.00487 192.423 1.44457 192.001C1.88428 191.579 2.53133 191.457 3.09493 191.688C10.8293 194.864 17.6226 192.407 25.3566 189.585L25.3603 189.584C32.9623 186.81 41.3653 183.744 51.4437 187.048C56.1252 188.083 59.3647 186.654 61.4986 184.452C63.7193 182.16 64.8136 178.948 64.8827 176.491L64.8848 176.442L65.7524 161.994C65.8034 161.145 66.5327 160.499 67.3814 160.55Z" fill="#221F20"/>
<path fill-rule="evenodd" clip-rule="evenodd" d="M88.0837 130.789L89.2547 132.083C95.3136 138.775 100.813 143.96 108.121 149.309L108.13 149.315C116.549 155.77 126.68 161.657 131.832 163.61L133.522 164.179L132.732 165.761C132.323 166.653 131.837 167.474 131.34 168.132L131.338 168.136C128.849 171.375 125.122 172.426 121.329 172.347C117.705 172.268 113.942 171.142 110.985 169.789C110.738 169.705 110.5 169.614 110.273 169.516C110.597 170.073 111.006 170.628 111.6 171.434C111.657 171.511 111.716 171.59 111.776 171.672L112.41 172.541L112.412 172.544L113.875 174.576L111.402 175.025C103.752 176.392 96.7644 174.052 90.8517 170.058C84.2802 165.624 79.0404 159.077 75.8094 153.147C72.5711 159.078 67.2543 165.625 60.6075 170.058C54.7764 174.055 47.7873 176.395 40.14 175.025L37.55 174.576L39.1304 172.536L39.759 171.674C39.8194 171.592 39.8793 171.511 39.9362 171.434C40.541 170.614 40.9546 170.053 41.2807 169.486C41.0423 169.593 40.8021 169.695 40.5613 169.785C37.6031 171.14 33.8374 172.267 30.2108 172.347C26.4187 172.426 22.6993 171.378 20.2075 168.148C19.6206 167.473 19.1285 166.644 18.7228 165.753L18.7184 165.743L18.048 164.179L19.6211 163.612C24.8495 161.661 34.9842 155.773 43.4068 149.315L43.4093 149.314C47.2823 146.385 52.0665 142.697 54.7214 140.04L54.7256 140.036C56.373 138.427 57.2534 137.468 58.1361 136.487C58.2321 136.38 58.3282 136.273 58.4253 136.165C59.2255 135.274 60.0969 134.304 61.5808 132.782L62.6877 131.648L62.3849 133.204C62.0695 134.824 61.1196 136.568 59.8414 138.309C58.5578 140.057 56.9154 141.838 55.1691 143.536C51.6765 146.931 47.7324 150.024 45.3245 151.882C37.5705 157.875 28.2473 163.348 22.4682 165.85L22.4719 165.856C22.496 165.896 22.5182 165.934 22.539 165.969C22.5977 166.068 22.6457 166.148 22.694 166.221C24.4655 168.422 27.2085 169.264 30.1913 169.189C33.263 169.111 36.5906 168.109 39.2327 166.866L39.2429 166.861C41.8089 165.727 43.3344 164.528 45.4717 162.847C45.5184 162.81 45.5654 162.773 45.6126 162.736L46.6741 161.902L46.3667 163.216C46.2319 163.793 46.112 164.344 45.9961 164.877C45.4271 167.493 44.9552 169.663 43.2976 172.169C49.0023 172.466 54.2841 170.497 58.8135 167.377L58.8177 167.374C66.6866 162.075 71.2966 155.054 75.3835 146.641L75.8224 145.738L76.2403 146.651C80.0846 155.054 84.9306 162.152 92.6449 167.375C97.2552 170.499 102.54 172.466 108.176 172.169C106.524 169.601 106.03 167.391 105.425 164.679C105.319 164.208 105.211 163.722 105.092 163.217L104.792 161.935L105.84 162.731C106.105 162.933 106.359 163.127 106.604 163.315C108.492 164.761 109.896 165.836 112.216 166.861L112.226 166.866C114.867 168.109 118.195 169.111 121.347 169.189C124.338 169.264 127.082 168.419 128.771 166.214L128.791 166.188L128.814 166.165C128.897 166.083 128.968 165.985 129.039 165.869C123.336 163.376 113.984 157.888 106.133 151.883C102.852 149.351 98.7489 145.98 95.3151 142.525C93.5983 140.797 92.0405 139.04 90.8342 137.349C89.6324 135.664 88.7556 134.012 88.4397 132.497L88.0837 130.789Z" fill="#221F20"/>
<path fill-rule="evenodd" clip-rule="evenodd" d="M133.973 135.256C124.954 131.205 113.257 125.132 106.823 118.47L108.867 116.496C115.355 123.214 127.886 129.516 137.137 133.549L138.902 134.318L137.646 135.778C135.791 137.935 133.175 139.085 130.399 139.626C127.623 140.167 124.577 140.121 121.693 139.797C118.629 139.451 115.662 138.779 113.273 138.09C115.942 140.999 119.432 143.764 122.181 145.786L124.623 147.582L121.681 148.311C117.609 149.318 113.026 149.998 108.257 149.148C103.455 148.293 98.5707 145.906 93.8776 140.96L95.9391 139.004C100.237 143.533 104.582 145.607 108.755 146.35C111.904 146.911 115.014 146.726 118.014 146.192C114.458 143.401 110.264 139.662 108.043 135.887L105.683 131.875L109.881 133.884C111.461 134.64 116.553 136.357 122.011 136.972C124.73 137.279 127.464 137.302 129.856 136.836C131.446 136.527 132.837 136.011 133.973 135.256Z" fill="#221F20"/>
<path fill-rule="evenodd" clip-rule="evenodd" d="M88.4387 78.8518L89.8771 80.4857C94.5383 85.7803 99.6993 91.4892 105.548 95.3887L105.579 95.4093C113.368 101.393 122.786 106.884 127.607 108.673L127.614 108.675L129.207 109.29L128.473 110.753C128.131 111.685 127.626 112.434 127.144 113.076L127.138 113.084C124.618 116.32 120.814 117.249 116.992 117.006C113.646 116.793 110.218 115.681 107.451 114.356C107.663 114.844 107.965 115.337 108.329 115.83C108.973 116.701 109.774 117.524 110.524 118.275L111.279 119.031L110.225 119.21C105.535 120.007 100.691 120.161 96.6063 118.734C92.4829 117.294 89.1766 114.256 87.5889 108.796L86.9878 106.728L88.5103 108.251C88.9228 108.663 89.3459 109.134 89.7991 109.638C90.9897 110.963 92.3882 112.519 94.3487 113.857C96.8574 115.568 100.258 116.88 105.166 116.599C103.556 113.882 102.784 111.558 102.56 108.359L102.47 107.067L103.465 107.896C106.014 110.02 110.376 112.501 114.658 113.495C118.729 114.44 122.53 114.012 124.771 110.935C119.377 108.569 110.811 103.436 103.65 97.9477C100.595 95.6861 97.2545 92.8826 94.513 89.9408C91.7849 87.0133 89.5888 83.8848 88.9237 80.9739L88.4387 78.8518Z" fill="#221F20"/>
<path fill-rule="evenodd" clip-rule="evenodd" d="M129.492 82.549C121.332 78.732 111.489 72.815 106.001 66.7243L108.112 64.8218C113.67 70.9894 124.334 77.2075 132.719 80.8927L134.525 81.6864L133.201 83.148C131.383 85.1529 128.898 86.1934 126.289 86.6625C123.681 87.1313 120.849 87.0496 118.187 86.7243C115.538 86.4008 112.992 85.8273 110.905 85.2637C113.388 87.9091 116.387 90.425 118.87 92.2604L121.309 94.0627L118.364 94.7835C114.58 95.7094 110.406 96.3536 106.053 95.5607C101.665 94.7615 97.2176 92.5257 92.8476 87.906L94.9123 85.9529C98.9059 90.1749 102.823 92.0836 106.562 92.7647C109.32 93.267 112.048 93.114 114.735 92.6481C111.52 90.0361 107.938 86.6526 105.648 83.3155L103.191 79.7361L107.289 81.1701C108.845 81.7149 113.521 83.2911 118.532 83.9033C121.037 84.2094 123.56 84.2655 125.786 83.8653C127.196 83.6118 128.445 83.1832 129.492 82.549Z" fill="#221F20"/>
<path fill-rule="evenodd" clip-rule="evenodd" d="M88.1261 28.5543L89.352 29.8138C90.64 31.1371 91.4029 31.9498 92.0907 32.6824C92.9786 33.6281 93.7411 34.4404 95.3457 36.0449C97.7077 38.4097 100.922 41.4694 104.291 44.0546C110.589 48.8605 118.824 54.2691 126.247 57.0054L126.773 57.1994L126.533 57.7064C124.322 62.378 120.782 64.3607 116.844 64.6296C113.348 64.8683 109.571 63.7577 106.151 62.0847C106.368 62.5394 106.648 63.0002 106.972 63.4574C107.57 64.3036 108.298 65.1097 108.997 65.8078L109.682 66.491L108.732 66.6747C104.996 67.3979 100.696 67.343 96.949 65.9815C93.1859 64.6141 89.9763 61.924 88.4994 57.4087L87.8164 55.3204L89.3537 56.8902C91.2386 58.8149 92.8664 60.3024 95.1141 61.4169C97.1788 62.4407 99.7989 63.1649 103.664 63.5801C101.984 60.865 101.639 58.5149 101.492 56.3361L101.402 55.0097L102.36 55.9319C104.425 57.9215 108.447 60.3239 112.539 61.2994C116.433 62.2275 120.213 61.8351 122.528 58.8094C117.45 56.5351 109.262 51.7083 102.404 46.4467L102.401 46.444C99.5091 44.1848 96.3097 41.4424 93.6996 38.632C91.1069 35.8404 89.0263 32.9101 88.4819 30.2755L88.1261 28.5543Z" fill="#221F20"/>
<path fill-rule="evenodd" clip-rule="evenodd" d="M14.3295 133.546C24.1401 129.272 35.6117 123.535 41.9284 116.457L44.0489 118.349C37.7416 125.417 26.8975 131.052 17.5597 135.227C18.7397 135.968 20.1668 136.469 21.7822 136.764C24.2249 137.211 26.9896 137.168 29.7153 136.852C35.1862 136.217 40.2075 134.518 41.6021 133.873L45.9289 131.873L43.4036 135.916C41.0545 139.677 36.9948 143.412 33.4295 146.219C36.4298 146.817 39.4751 147.129 42.5582 146.685C46.6084 146.102 50.8386 144.195 55.131 139.638L57.1999 141.586C52.496 146.581 47.691 148.818 42.9631 149.498C38.2875 150.171 33.802 149.302 29.7853 148.308L26.8056 147.57L29.296 145.775C32.0821 143.768 35.4987 140.983 38.1786 138.04C35.8789 138.687 33.0195 139.329 30.043 139.675C27.1567 140.01 24.0874 140.075 21.2706 139.56C18.4553 139.045 15.7835 137.928 13.8474 135.806L12.5084 134.339L14.3295 133.546Z" fill="#221F20"/>
<path fill-rule="evenodd" clip-rule="evenodd" d="M62.4154 78.7702L61.9118 80.9738C61.2467 83.8846 59.0506 87.0131 56.3229 89.9406C53.5817 92.8824 50.2418 95.686 47.1888 97.9475C40.0316 103.43 31.4763 108.558 26.0807 110.927C28.5353 114.139 32.4477 114.576 36.5004 113.615C40.7692 112.603 45.0062 110.066 47.35 107.914L48.533 106.827L48.2689 108.411C48.2593 108.469 48.2498 108.526 48.2403 108.583C47.7437 111.566 47.4034 113.609 45.6643 116.599C50.5767 116.881 54.0153 115.569 56.544 113.856C58.6249 112.446 60.0839 110.779 61.2809 109.412C61.6453 108.995 61.9855 108.607 62.3115 108.262L63.8835 106.597L63.2438 108.796C61.6547 114.256 58.3485 117.294 54.2254 118.734C50.1408 120.161 45.2978 120.006 40.6077 119.21L39.5542 119.031L40.3091 118.275C41.0429 117.54 41.809 116.676 42.4366 115.782C42.7573 115.325 43.0354 114.869 43.2545 114.425C39.683 116.155 35.6938 117.302 32.0136 117.055C27.8485 116.776 24.1114 114.708 21.892 109.814L21.6501 109.281L23.2281 108.673C28.0493 106.884 37.4684 101.394 45.2569 95.4101L45.2781 95.3938C50.1152 92.037 56.9432 85.212 60.952 80.4929L62.4154 78.7702Z" fill="#221F20"/>
<path fill-rule="evenodd" clip-rule="evenodd" d="M32.1487 73.7527C36.9202 70.8021 41.2398 67.5339 43.6834 64.4227L45.9184 66.1782C43.1537 69.6982 38.4784 73.1801 33.6435 76.1699C29.6046 78.6676 25.3592 80.8792 21.8171 82.5412C22.8837 83.1864 24.1568 83.6255 25.5911 83.8881C27.8425 84.3004 30.3892 84.2578 32.9076 83.9615C37.9531 83.3677 42.6165 81.7894 44.0117 81.2017L48.3337 79.3813L45.749 83.2945C43.4574 86.7639 39.878 90.0748 36.6763 92.6433C39.286 93.0706 41.9274 93.1619 44.605 92.613C48.279 91.8599 52.1504 89.8745 56.158 85.6379L58.2226 87.5909C53.8666 92.1959 49.4917 94.5125 45.1757 95.3972C40.8858 96.2765 36.783 95.7139 33.018 94.7825L30.0837 94.0567L32.5148 92.2602C35.0073 90.4183 37.9902 87.9868 40.4594 85.3532C38.3827 85.9194 35.8625 86.4754 33.2397 86.784C30.5605 87.0993 27.7074 87.165 25.0792 86.6837C22.4508 86.2024 19.9454 85.1536 18.1105 83.1544L16.7723 81.6965L18.5815 80.8945C22.3603 79.2192 27.4101 76.6831 32.1487 73.7527Z" fill="#221F20"/>
<path fill-rule="evenodd" clip-rule="evenodd" d="M63.489 28.4752L63.1329 30.1979C62.5886 32.8316 60.5098 35.7816 57.9173 38.5838C55.3073 41.4048 52.1079 44.148 49.2134 46.3691C42.3526 51.6335 34.1672 56.4579 29.087 58.732C31.4023 61.7609 35.1842 62.1701 39.0764 61.2516C43.1679 60.2861 47.1863 57.8843 49.2488 55.8579L50.2097 54.9138L50.1203 56.258C49.9752 58.4401 49.6276 60.7931 47.9438 63.512C51.8167 63.1268 54.4394 62.401 56.505 61.3677C58.7528 60.2433 60.3798 58.7366 62.2666 56.8099L63.7084 55.3376L63.1253 57.314C61.846 61.6506 58.6624 64.2798 54.8796 65.6635C51.1094 67.0426 46.717 67.1988 42.9055 66.5975L41.9793 66.4514L42.6016 65.7501C43.2343 65.0372 43.9477 64.2265 44.5617 63.3728C44.8819 62.9274 45.168 62.4798 45.399 62.0379C41.9963 63.6935 38.2464 64.7885 34.7737 64.5514C30.8349 64.2824 27.2947 62.299 25.0816 57.6261L24.8414 57.1191L25.3678 56.9251C32.7913 54.1888 41.0288 48.7774 47.3265 43.9742C50.693 41.389 53.9098 38.3295 56.2717 35.9676M56.2717 35.9676C57.8799 34.3578 58.6427 33.5452 59.5331 32.5968C60.2189 31.8662 60.9805 31.055 62.2626 29.7364L63.489 28.4752" fill="#221F20"/>
<path fill-rule="evenodd" clip-rule="evenodd" d="M75.8823 0.203842L77.0832 2.61989C80.5475 9.58991 88.3038 18.0453 96.4587 25.4073C104.602 32.7588 112.916 38.8184 117.328 41.0632L120.244 42.5463L117.17 43.665C109.885 46.3167 101.511 46.1349 95.0058 39.6233L97.0163 37.6146C101.65 42.253 107.428 43.1826 113.093 41.9101C108.196 38.8642 101.267 33.5768 94.5543 27.5168C87.1581 20.8399 79.8394 13.0607 75.7495 6.11132C71.2843 13.0626 63.6183 20.9308 56.1652 27.6185C49.5827 33.525 43.0238 38.6361 38.7632 41.4829C44.4989 42.8504 50.171 42.0508 54.8428 37.3768L56.8529 39.3859C50.334 45.9079 42.1869 45.9093 34.8517 43.2718L31.8732 42.2008L34.6527 40.6867C38.0526 38.8346 46.0599 32.8675 54.2671 25.5032C62.4793 18.1344 70.6682 9.56356 74.5693 2.56081L75.8823 0.203842Z" fill="#221F20"/>
</svg>
