<svg width="158" height="202" viewBox="0 0 158 202" fill="none" xmlns="http://www.w3.org/2000/svg">
<path d="M34.8966 80.2197C34.7146 80.1095 34.5319 79.999 34.3485 79.8881C31.5081 80.3633 28.9053 79.5731 26.5291 77.8407C24.0037 78.7884 20.5306 78.3933 16.585 77.208C17.8477 73.6547 19.7431 70.9719 22.5062 69.629C22.5062 66.1531 23.2936 62.2849 26.4518 59.4445L26.7677 58.6415C28.9249 61.8593 32.7776 64.332 37.8986 65.048C42.147 65.6712 47.8945 62.9781 53.2189 60.4834C60.0525 57.2814 66.1892 54.4061 67.5651 59.2871C69.3245 63.9927 62.6587 65.1215 55.1946 66.3855C49.2605 67.3904 42.8218 68.4808 39.7111 71.5218C36.9489 74.2067 35.3943 77.2497 34.8966 80.2197Z" fill="#007241"/>
<path d="M67.8735 106.212C73.4449 114.904 74.9987 125.837 73.4838 143.672C73.7988 150.226 70.0908 149.751 69.1459 144.62C69.0658 133.883 66.7006 125.594 60.6247 121.568V125.909C58.3219 123.574 56.3214 120.758 54.4627 118.143C51.8613 114.482 49.5379 111.212 47.0528 110.198C47.1239 110.626 47.195 111.07 47.2663 111.516C47.353 112.058 47.4401 112.602 47.528 113.122C44.6046 111.13 41.7266 109.274 38.8337 107.408C36.3375 105.799 33.8303 104.182 31.2732 102.465C31.3036 102.882 31.3609 103.299 31.4182 103.716C31.5018 104.325 31.5855 104.935 31.5855 105.543C26.6949 102.619 20.8567 99.5442 15.0184 96.9387C15.0934 97.1636 15.1683 97.3856 15.2425 97.6059C15.5596 98.5462 15.8656 99.4536 16.1208 100.412C11.07 98.6738 6.25965 96.5436 1.68134 94.0182C2.31407 100.254 4.1266 106.175 7.75444 111.624L7.6332 111.586C6.411 111.204 5.18878 110.821 3.88893 110.439C4.05699 110.876 4.22217 111.313 4.38718 111.75C6.15915 116.438 7.9099 121.071 12.9627 125.044C10.8324 124.884 8.77947 124.806 6.65195 124.726C7.02749 125.195 7.40307 125.665 7.77883 126.136C12.5314 132.091 17.313 138.082 22.4315 140.279C21.9001 140.357 21.386 140.433 20.8722 140.508C20.3201 140.59 19.7685 140.672 19.1961 140.755C24.4817 147.306 31.2705 155.28 41.4494 156.542C40.4275 157.33 39.4796 158.198 38.5375 159.06L38.5289 159.068C42.6137 162.458 50.251 162.475 57.3743 162.492C60.7067 162.499 63.9266 162.506 66.6177 162.859C73.7186 163.806 74.5061 167.122 74.1138 174.068C73.9614 177.073 73.5216 180.398 73.0962 183.614C72.2026 190.369 71.3727 196.643 73.4036 198.463C79.7144 202.884 86.8982 197.04 86.8982 191.832C86.2655 186.466 85.7129 180.385 85.5554 175.016C85.6235 173.975 85.6527 172.97 85.6806 172.01C85.8472 166.27 85.9675 162.127 94.0793 161.516C96.3991 161.33 99.0875 161.403 101.872 161.48C108.555 161.663 115.791 161.861 119.803 158.518C119.337 158.091 118.871 157.682 118.405 157.274C117.924 156.852 117.443 156.431 116.963 155.99C127.061 154.727 133.847 146.753 139.133 140.202L138.94 140.174C137.91 140.024 136.938 139.882 135.898 139.807C141.157 137.476 146.059 131.28 150.946 125.104C151.191 124.794 151.435 124.485 151.68 124.176C150.636 124.216 149.57 124.276 148.505 124.336C147.478 124.394 146.452 124.452 145.447 124.491C150.361 120.643 152.124 116.021 153.872 111.441C154.06 110.948 154.248 110.455 154.44 109.964C153.777 110.172 153.093 110.38 152.409 110.587C151.791 110.774 151.174 110.961 150.575 111.149C154.205 105.703 156.021 99.7017 156.651 93.4656C152.075 95.9937 147.262 98.124 142.211 99.8592C142.411 99.2992 142.591 98.7187 142.77 98.1384C142.945 97.5734 143.12 97.0087 143.313 96.4634C137.475 98.9888 131.714 102.147 126.744 105.067C126.782 104.556 126.842 104.025 126.901 103.493C126.96 102.959 127.02 102.424 127.059 101.909C124.336 103.765 121.633 105.521 118.931 107.278C116.229 109.034 113.527 110.791 110.804 112.646C110.881 112.15 110.958 111.672 111.034 111.194C111.115 110.685 111.196 110.176 111.279 109.646C108.798 110.702 106.478 113.981 103.898 117.626C102.046 120.243 100.06 123.05 97.7845 125.359V121.096C91.6285 125.121 89.3407 133.333 89.186 144.065C88.7108 148.643 85.083 149.276 84.8454 145.015C84.5246 123.979 85.9748 113.201 90.7362 105.8C87.8798 104.421 85.2869 101.858 83.5077 98.1269C81.6912 94.4256 82.5007 88.6233 83.2756 83.0689C84.3525 75.3508 85.3625 68.1115 79.1669 67.6535C74.158 67.5659 75.2647 74.0855 76.5077 81.4081C77.4972 87.2373 78.573 93.5753 76.7189 97.4941C74.6687 102.082 71.3947 105.018 67.8735 106.212Z" fill="#007241"/>
<path d="M124.733 81.928C124.981 81.7753 125.23 81.6212 125.481 81.4658C128.321 81.8609 130.927 81.1508 133.372 79.3355C135.895 80.2832 139.291 79.8881 143.233 78.7028C141.971 75.1495 140.075 72.4666 137.315 71.1238C137.315 67.6507 136.525 63.7825 133.369 61.0195L132.991 59.8692C130.803 62.5408 127.328 64.5302 122.801 65.1282C118.504 65.862 112.522 63.1 106.977 60.5395C99.9959 57.3158 93.7066 54.4117 92.3438 59.207C90.6634 63.9866 97.0655 65.0947 104.268 66.3412C109.914 67.3185 116.052 68.3809 119.173 71.3643C122.631 74.5965 124.444 78.3819 124.733 81.928Z" fill="#007241"/>
<path d="M120.154 20.8181L119.875 19.9693C120.977 17.3666 120.9 14.6036 119.715 11.8405C121.215 9.63013 121.69 6.23438 121.453 2.05118C117.742 2.52365 114.667 3.70899 112.694 5.99676C109.298 5.20654 105.435 5.04905 101.885 7.41972L101.027 7.41484C103.087 10.4519 104.032 14.5621 103.155 19.182C102.414 23.4833 97.7398 28.0523 93.4537 32.2421C88.1421 37.4344 83.4264 42.0441 87.5306 44.8393C91.6159 47.8923 95.0355 41.9071 98.8072 35.3055C101.668 30.2985 104.731 24.9369 108.441 22.8955C112.579 20.5623 116.716 19.9931 120.154 20.8181Z" fill="#007241"/>
<path d="M60.1114 7.18237L60.0639 7.1821C56.5908 4.81419 52.6452 4.89156 49.3323 5.76191C47.2822 3.394 44.2042 2.20867 40.4962 1.81356C40.2586 5.9194 40.731 9.39251 42.3114 11.6029C41.1234 14.3659 40.9686 17.0488 42.0738 19.7345L41.9335 20.0913C45.047 19.6498 48.5848 20.2791 52.1032 22.2627C55.8722 24.3386 58.8078 29.9336 61.5211 35.1051C64.9979 41.7318 68.11 47.6633 72.1434 44.6045C76.3294 41.753 71.9981 37.0426 67.117 31.7343C63.3475 27.635 59.2502 23.179 58.4941 18.9471C57.6078 14.2836 58.3193 10.1801 60.1114 7.18237Z" fill="#007241"/>
<path d="M115.067 43.2589C108.123 42.8638 101.733 44.4442 96.2866 49.7326C103.943 50.0476 110.019 47.5222 115.067 43.2589Z" fill="#007241"/>
<path d="M101.97 85.1766C100.235 78.468 96.7619 72.8618 90.1334 69.2312C92.109 76.6527 96.3695 81.6261 101.97 85.1766Z" fill="#007241"/>
<path d="M57.6237 85.5717C59.0467 78.8603 62.2822 73.0995 68.7504 69.2285C67.0954 76.6527 63.0696 81.8637 57.6237 85.5717Z" fill="#007241"/>
<path d="M44.3695 43.2589C51.2329 42.8638 57.6237 44.4442 63.0696 49.7326C55.4161 50.0476 49.4203 47.5222 44.3695 43.2589Z" fill="#007241"/>
<path d="M79.7997 39.153C77.1942 32.7594 76.6416 26.2055 79.7997 19.3395C82.6373 26.4432 82.1648 32.997 79.7997 39.153Z" fill="#007241"/>
<path fill-rule="evenodd" clip-rule="evenodd" d="M74.7264 194.251C73.9688 195.36 73.7709 196.576 74.4045 197.844L72.5684 198.762C71.5455 196.715 71.9299 194.705 73.0317 193.093C74.1074 191.519 75.8687 190.298 77.743 189.596C79.6148 188.895 81.7397 188.659 83.5779 189.23C85.4823 189.821 86.9959 191.261 87.5095 193.668L85.502 194.096C85.148 192.437 84.1863 191.568 82.9693 191.19C81.686 190.792 80.0434 190.926 78.4631 191.518C76.8854 192.109 75.5102 193.104 74.7264 194.251Z" fill="#221F20"/>
<path d="M89.3425 163.792C88.3493 164.397 87.7633 165.192 87.4058 166.186C87.0356 167.216 86.9061 168.474 86.8883 169.988C86.8777 170.884 86.9046 171.796 86.9333 172.769L86.9333 172.77C86.9541 173.474 86.9758 174.21 86.985 174.995L87.0033 175.619V175.62C87.1556 180.839 87.324 186.608 87.9259 191.711L87.9291 191.739C88.2092 194.828 86.2253 197.981 83.4407 199.745C80.5934 201.548 76.7296 202.023 73.143 199.542L73.0848 199.501L73.0326 199.453C72.4919 198.957 72.1423 198.286 71.9096 197.567C71.6756 196.844 71.5392 196.009 71.4671 195.11C71.3233 193.314 71.4262 191.123 71.6297 188.782C71.7965 186.863 72.0279 184.855 72.2603 182.838C72.6068 179.832 72.9557 176.805 73.0971 174.016L73.0974 174.01C73.2968 170.506 73.1591 168.239 72.2936 166.722C71.4932 165.319 69.9168 164.334 66.4926 163.876C64.45 163.609 62.0693 163.545 59.5107 163.526C58.8188 163.521 58.1133 163.519 57.3996 163.518H57.3968C55.4955 163.514 53.537 163.509 51.6268 163.44C48.9938 163.346 46.3895 163.128 44.045 162.606C41.7049 162.084 39.5533 161.245 37.8818 159.857L36.9757 159.106L37.8673 158.29C38.2695 157.921 38.6797 157.546 39.1008 157.173C29.6893 155.057 23.2821 147.443 18.4056 141.399L17.2751 139.998L19.0567 139.739L19.2899 139.705C17.3369 138.391 15.4621 136.648 13.6526 134.715C11.3954 132.303 9.17506 129.52 6.99065 126.783L6.9906 126.783C6.61252 126.309 6.23552 125.837 5.85959 125.368L4.45498 123.616L6.69891 123.701C7.83827 123.743 8.96085 123.786 10.0876 123.842C6.47312 120.164 4.92887 116.071 3.44023 112.126C3.27352 111.684 3.10751 111.244 2.93937 110.807L2.19367 108.868L4.18703 109.454C4.62027 109.582 5.04486 109.709 5.46333 109.836C2.68091 104.892 1.22318 99.6143 0.668511 94.1212L0.471863 92.1736L2.18558 93.1195C6.12967 95.2964 10.251 97.1787 14.5556 98.7629C14.4754 98.5208 14.3931 98.2765 14.3092 98.0274C14.2251 97.7777 14.1394 97.5233 14.0526 97.2617L13.3198 95.0529L15.445 96.0013C20.6439 98.3215 25.8428 101.013 30.3799 103.638C30.3321 103.285 30.2849 102.91 30.2579 102.539L30.1049 100.437L31.8541 101.613C34.4247 103.341 36.9454 104.966 39.4645 106.591L39.9932 106.932C42.0369 108.25 44.0812 109.572 46.1436 110.946C46.1115 110.748 46.0798 110.554 46.0487 110.367L45.7475 108.554L47.4487 109.248C48.7161 109.765 49.8726 110.739 50.9529 111.898C52.0404 113.065 53.1175 114.494 54.2051 116.003C54.5756 116.517 54.9478 117.04 55.3234 117.569L55.3245 117.57C56.6797 119.477 58.0799 121.446 59.6068 123.254V119.657L61.2 120.713C67.7272 125.037 70.0998 133.25 70.1805 144.06L70.1806 144.08L70.18 144.101C70.1456 145.15 70.373 145.909 70.6552 146.37C70.9452 146.845 71.2222 146.919 71.3243 146.92C71.3979 146.921 71.6778 146.884 71.9988 146.31C72.3232 145.729 72.6079 144.708 72.6262 143.108L72.6265 143.075C72.6674 142.126 72.7132 141.179 72.7589 140.234L72.7709 139.985C73.2516 130.031 73.7215 120.302 69.3121 109.726L71.2067 108.936C75.803 119.96 75.3066 130.145 74.8232 140.062C74.7729 141.093 74.7227 142.122 74.6785 143.148C74.6563 144.935 74.34 146.327 73.7908 147.311C73.2365 148.303 72.3672 148.982 71.3062 148.973C70.2737 148.963 69.4308 148.302 68.9042 147.442C68.3726 146.573 68.087 145.405 68.1277 144.055C68.0536 134.474 66.1371 127.638 61.6594 123.65V128.412L59.9022 126.629C57.5366 124.229 55.4797 121.334 53.6225 118.72L53.6216 118.718C53.2535 118.2 52.8932 117.693 52.54 117.203C51.4579 115.702 50.4444 114.363 49.4512 113.298C49.105 112.926 48.7691 112.596 48.442 112.31C48.477 112.524 48.5123 112.737 48.5483 112.95L48.9499 115.326L46.9587 113.97C44.2476 112.124 41.5738 110.394 38.8806 108.657L38.3488 108.314C36.4372 107.081 34.5139 105.841 32.5653 104.553C32.5976 104.873 32.6201 105.206 32.6201 105.543V107.351L31.0673 106.424C26.8083 103.879 21.8176 101.212 16.741 98.8482C16.8753 99.2745 17.0038 99.7067 17.1211 100.148L17.6151 102.007L15.7959 101.382C11.3285 99.8485 7.04781 98.0065 2.94874 95.8602C3.72554 101.242 5.47364 106.334 8.61703 111.055L10.2247 113.47L7.33507 112.566L7.33433 112.565C6.75646 112.384 6.18067 112.204 5.59791 112.024C7.28985 116.476 9.01018 120.623 13.6055 124.237L16.2486 126.316L12.8953 126.067C11.5371 125.967 10.2085 125.898 8.86458 125.84C10.9635 128.47 13.0414 131.057 15.1513 133.312C17.7365 136.075 20.2816 138.237 22.8443 139.336L26.1939 140.772L22.5872 141.295C22.0841 141.368 21.6103 141.438 21.1392 141.507C26.2547 147.738 32.5516 154.403 41.5841 155.524L44.0614 155.831L42.0844 157.355C41.4255 157.863 40.7962 158.407 40.1673 158.972C41.3556 159.701 42.8139 160.229 44.4913 160.602C46.6562 161.084 49.1162 161.296 51.7005 161.389C53.5735 161.456 55.4787 161.461 57.368 161.465H57.3685C58.0907 161.467 58.8106 161.468 59.5255 161.473C62.0882 161.492 64.58 161.556 66.7593 161.841C70.4344 162.331 72.8057 163.478 74.0766 165.705C75.2823 167.819 75.3425 170.683 75.1469 174.123C75.0038 176.944 74.6385 180.127 74.2851 183.206L74.2851 183.206L74.2851 183.206C74.055 185.211 73.83 187.172 73.6746 188.96C73.4733 191.276 73.3836 193.327 73.5132 194.946C73.5779 195.754 73.6949 196.418 73.8625 196.935C74.0185 197.417 74.2012 197.719 74.3773 197.899C77.1646 199.79 80.098 199.432 82.3424 198.011C84.6626 196.541 86.0711 194.056 85.8856 191.937C85.2742 186.744 85.1038 180.9 84.9524 175.712L84.933 175.046L84.9324 175.028C84.9243 174.328 84.9039 173.614 84.8836 172.909V172.908C84.854 171.884 84.825 170.88 84.8358 169.964C84.8543 168.385 84.986 166.85 85.4741 165.492C85.9749 164.099 86.8441 162.91 88.2753 162.039C88.8706 161.677 90.4163 160.821 93.117 160.576C95.2962 160.29 97.8109 160.378 100.374 160.359C101.088 160.354 103.191 160.506 103.914 160.504C105.803 160.5 106.515 160.573 108.388 160.506C110.972 160.413 112.456 160.291 114.621 159.809C116.298 159.435 116.998 159.152 118.186 158.423C117.557 157.858 117.096 157.463 116.438 156.955L114.646 155.25L117.019 154.972C126.051 153.852 132.088 147.158 137.203 140.928C136.732 140.858 135.958 140.86 135.455 140.787L131.749 140.507L135.099 139.071C137.661 137.973 140.297 135.888 142.882 133.125C144.992 130.87 147.515 127.897 149.614 125.268C148.27 125.325 146.941 125.394 145.583 125.495L142.341 125.645L144.873 123.664C149.468 120.051 151.085 115.997 152.777 111.545C152.194 111.725 151.619 111.905 151.041 112.086L148.15 112.991L149.758 110.576C152.902 105.855 154.602 100.687 155.379 95.3055C151.28 97.4518 146.825 99.3637 142.358 100.898L140.538 101.522L141.2 99.7284C141.317 99.287 141.516 98.7695 141.65 98.3432C136.573 100.707 131.513 103.459 127.254 106.004L125.558 106.962L125.701 105.123C125.701 104.786 125.795 104.303 125.828 103.983C123.879 105.271 121.641 106.765 119.729 107.998L119.198 108.341C116.504 110.078 114.065 111.657 111.354 113.503L109.422 114.83L109.78 112.449C109.816 112.236 109.851 112.022 109.886 111.808C109.559 112.095 109.15 112.431 108.804 112.802C107.811 113.868 106.881 115.202 105.799 116.703C105.446 117.192 105.086 117.699 104.719 118.216L104.716 118.219C102.859 120.833 100.874 123.696 98.5085 126.096L96.7513 127.879V123.238C92.3691 127.307 91.1495 134.333 90.9897 143.934C91.0305 145.284 90.7027 146.444 90.1711 147.313C89.6446 148.174 88.8017 148.835 87.7691 148.844C86.7081 148.854 85.7419 148.306 85.1876 147.313C84.6383 146.33 84.419 144.807 84.3968 143.02C84.3526 141.994 84.3759 140.99 84.3257 139.96C84.2095 129.963 83.8985 121.547 87.6527 109.088L89.6171 109.757C86.3079 119.369 86.1174 129.787 86.3779 139.883L86.3898 140.129C86.4355 141.075 86.4456 142.036 86.4866 142.987L86.4869 143.02C86.5052 144.62 86.5943 145.662 86.9186 146.242C87.2396 146.817 87.631 146.767 87.7045 146.766C87.8066 146.765 88.1505 146.604 88.4405 146.13C88.7227 145.668 88.9718 145.029 88.9375 143.98L88.9368 143.959L88.9369 143.939C89.1034 133.109 90.6324 124.752 97.0641 120.345L98.8234 119.201V122.677C100.35 120.869 101.659 118.976 103.014 117.07C103.39 116.541 103.763 116.016 104.134 115.502C105.221 113.994 106.215 112.57 107.302 111.403C108.382 110.244 109.539 109.27 110.806 108.753L112.508 108.059L112.206 109.871C112.175 110.059 112.144 110.253 112.111 110.451C114.174 109.076 116.035 107.93 118.078 106.612L118.607 106.271C121.126 104.647 123.818 102.851 126.389 101.123L128.245 99.8601L128.063 102.119C128.036 102.491 127.989 102.865 127.941 103.219C132.478 100.593 137.66 97.8739 142.859 95.5537L145.001 94.6332L144.268 96.8421C144.182 97.1033 144.096 97.3584 144.012 97.6077C143.928 97.8568 143.9 97.9883 143.82 98.2304C148.124 96.6463 152.21 94.7844 156.154 92.6075L157.867 91.6617L157.671 93.6092C157.116 99.1023 155.694 104.413 152.912 109.357C153.33 109.23 153.755 109.102 154.188 108.975L156.182 108.388L155.436 110.328C155.268 110.765 155.102 111.205 154.935 111.647C153.446 115.592 152.005 119.591 148.391 123.269C149.518 123.214 150.64 123.171 151.779 123.128L153.911 123.054L152.506 124.806C152.132 125.274 151.756 125.745 151.379 126.217L151.375 126.221C149.191 128.959 146.638 132.116 144.381 134.528C142.571 136.461 140.995 137.831 139.042 139.145L139.275 139.179L141.056 139.438L139.697 141.122C138.06 143.359 129.483 154.646 119.222 156.642C119.643 157.015 120.055 157.39 120.457 157.758L121.348 158.574L120.442 159.326C118.771 160.713 117.407 161.291 115.067 161.812C112.722 162.334 111.095 162.462 108.462 162.557C106.551 162.626 105.787 162.553 103.885 162.557C103.171 162.558 101.081 162.407 100.388 162.412C97.8298 162.43 95.4262 162.343 93.3837 162.611C93.3837 162.611 90.6325 162.874 89.3425 163.792Z" fill="#221F20"/>
<path d="M96.762 154.332C101.575 129.622 136.295 122.676 144.971 102.467C132.899 120.546 98.2596 132.623 94.1565 153.227C93.9216 155.042 96.0519 155.99 96.762 154.332Z" fill="#221F20"/>
<path d="M97.787 149.594C100.865 145.253 109.936 144.935 119.642 144.385C111.909 142.41 100.312 144.463 96.7619 147.463L97.787 149.594Z" fill="#221F20"/>
<path d="M108.834 123.386C105.994 127.254 105.759 131.836 105.521 136.414C105.836 137.047 118.54 138.779 125.249 133.808C119.646 135.861 110.099 135.939 108.204 134.676C106.941 133.176 107.417 127.807 108.834 123.386Z" fill="#221F20"/>
<path d="M122.563 111.071C119.723 114.94 117.355 122.914 117.12 127.489C117.432 128.122 129.192 129.15 135.898 124.176C130.297 126.227 121.381 127.017 119.488 125.754C118.225 124.254 121.146 115.412 122.563 111.071Z" fill="#221F20"/>
<path d="M146.709 112.334C142.446 116.122 135.977 116.758 132.189 116.758C132.822 116.125 135.425 109.256 133.057 105.468C132.977 111.627 132.504 113.757 129.109 118.65C130.219 119.361 144.974 118.098 146.709 112.334Z" fill="#221F20"/>
<path d="M61.65 154.805C56.7567 130.098 22.0394 123.229 13.3608 103.02C25.507 121.099 60.0696 133.098 64.2528 153.702C64.413 155.517 62.2827 156.465 61.65 154.805Z" fill="#221F20"/>
<path d="M60.5448 150.069C57.5469 145.728 48.3958 145.49 38.6893 144.858C46.423 142.962 58.0194 145.018 61.5699 148.016L60.5448 150.069Z" fill="#221F20"/>
<path d="M49.498 123.939C52.3384 127.807 52.576 132.385 52.8109 136.964C52.4987 137.596 39.7943 139.254 33.0857 134.361C38.6863 136.414 48.3154 136.414 50.128 135.228C51.3907 133.728 50.921 128.279 49.498 123.939Z" fill="#221F20"/>
<path d="M35.7687 111.624C38.6091 115.412 41.0571 123.464 41.2919 128.042C40.977 128.675 29.1429 129.62 22.4343 124.726C28.035 126.702 37.0313 127.489 38.8439 126.307C40.1066 124.809 37.1889 115.965 35.7687 111.624Z" fill="#221F20"/>
<path d="M11.6251 112.887C15.9631 116.675 22.434 117.308 26.2221 117.308C25.5092 116.675 22.9867 109.809 25.2744 105.941C25.4347 112.099 25.827 114.31 29.2974 119.203C28.1176 119.913 13.3631 118.57 11.6251 112.887Z" fill="#221F20"/>
<path fill-rule="evenodd" clip-rule="evenodd" d="M21.4964 69.003C21.5899 65.5379 22.5031 61.6202 25.7737 58.6787L27.1463 60.2049C24.2984 62.7663 23.5407 66.2855 23.5407 69.6263V70.2686L22.963 70.5494C20.7867 71.6071 19.1454 73.6475 17.9532 76.5253C21.3768 77.4425 24.1884 77.6233 26.1768 76.8771L26.6972 76.6818L27.1451 77.0109C29.3225 78.6109 31.7301 79.3013 34.2564 78.8787L34.5951 80.9032C31.6206 81.4009 28.8207 80.6379 26.3705 78.9764C23.5838 79.8108 20.0416 79.3128 16.298 78.1882L15.2651 77.8779L15.6262 76.8616C16.8543 73.4059 18.7147 70.5837 21.4964 69.003Z" fill="#221F20"/>
<path fill-rule="evenodd" clip-rule="evenodd" d="M30.8608 61.6581C31.4252 61.6058 31.9251 62.0209 31.9775 62.5853C32.3052 66.1198 30.816 68.811 28.8155 71.2078C31.6782 70.8781 34.7729 71.367 37.3357 73.306C37.7877 73.648 37.8769 74.2917 37.5349 74.7437C37.1928 75.1958 36.5492 75.2849 36.0971 74.9429C33.2304 72.7739 29.3657 72.793 26.1688 73.9107C25.7193 74.0679 25.2206 73.8952 24.9646 73.4936C24.7087 73.092 24.7626 72.567 25.0949 72.2258C28.1165 69.1235 30.2804 66.515 29.9336 62.7748C29.8813 62.2104 30.2964 61.7105 30.8608 61.6581Z" fill="#221F20"/>
<path fill-rule="evenodd" clip-rule="evenodd" d="M84.9193 113.501C87.8477 111.887 90.6859 109.935 91.7598 105.634L89.7682 105.137C88.8569 108.787 86.4594 110.343 83.414 111.983L82.8582 112.283L82.8747 112.914C82.9363 115.279 81.701 117.463 79.6393 119.923C77.5567 117.451 76.2689 115.271 76.3281 112.913L76.3444 112.267L75.77 111.973C72.73 110.417 70.2663 108.86 69.3556 105.141L67.3618 105.629C68.4345 110.01 71.3438 111.968 74.2856 113.516C74.4607 116.75 76.5138 119.516 78.8727 122.172L79.6397 123.036L80.4071 122.173C82.785 119.498 84.761 116.733 84.9193 113.501Z" fill="#221F20"/>
<path fill-rule="evenodd" clip-rule="evenodd" d="M86.8065 102.041C87.042 102.556 86.8151 103.165 86.2996 103.401C83.1255 104.851 81.4201 108.382 80.8914 111.782C80.8179 112.254 80.428 112.613 79.9512 112.648C79.4743 112.682 79.0368 112.383 78.8963 111.926C77.6209 107.779 76.6981 105.089 73.2302 103.561C72.7114 103.333 72.4762 102.727 72.7046 102.208C72.9331 101.69 73.5389 101.454 74.0576 101.683C77.2454 103.087 78.7214 105.363 79.7651 108.046C80.7854 105.372 82.5866 102.841 85.4464 101.534C85.962 101.298 86.5709 101.525 86.8065 102.041Z" fill="#221F20"/>
<path fill-rule="evenodd" clip-rule="evenodd" d="M136.294 71.1267C136.294 67.7882 135.299 63.5564 132.451 60.9952L133.824 59.469C137.096 62.412 138.22 66.9666 138.337 70.502C141.117 72.0808 142.978 74.9063 144.206 78.3619L144.567 79.3782L143.534 79.6885C139.792 80.8127 136.322 81.3085 133.546 80.4769C130.964 82.2224 127.882 82.8959 124.949 82.485L125.234 80.4522C127.812 80.8133 130.538 80.1665 132.767 78.5139L133.215 78.1814L133.738 78.3772C135.723 79.1209 138.468 78.9427 141.879 78.026C140.687 75.1471 139.046 73.1051 136.873 72.0499L136.294 71.7693V71.1267Z" fill="#221F20"/>
<path fill-rule="evenodd" clip-rule="evenodd" d="M128.972 62.9181C129.537 62.9708 129.951 63.471 129.899 64.0354C129.548 67.7912 131.737 70.6429 134.737 73.7234C135.07 74.0644 135.124 74.5892 134.868 74.9908C134.612 75.3924 134.114 75.5653 133.664 75.4085C130.48 74.2979 126.373 74.348 123.498 76.5234C123.046 76.8654 122.402 76.7762 122.06 76.3242C121.718 75.8722 121.807 75.2285 122.259 74.8865C124.848 72.9274 128.108 72.405 131.073 72.7344C129.036 70.2454 127.522 67.4097 127.855 63.8446C127.908 63.2803 128.408 62.8654 128.972 62.9181Z" fill="#221F20"/>
<path fill-rule="evenodd" clip-rule="evenodd" d="M122.423 0.894108L122.486 1.99303C122.712 5.96892 122.324 9.45993 120.872 11.9421C121.957 14.7806 121.982 17.7236 120.829 20.4495L118.938 19.6496C119.921 17.3268 119.866 14.7781 118.78 12.2452L118.558 11.729L118.874 11.2642C120.055 9.52365 120.572 6.80746 120.483 3.23637C117.422 3.77409 115.033 4.8659 113.48 6.66706L113.074 7.1368L112.47 6.99658C109.183 6.23356 105.664 6.05881 102.463 8.1935L101.324 6.4858C105.008 4.02866 108.971 4.16079 112.347 4.86735C114.552 2.61357 117.74 1.49038 121.331 1.03313L122.423 0.894108Z" fill="#221F20"/>
<path fill-rule="evenodd" clip-rule="evenodd" d="M115.885 9.3114C116.216 9.65343 116.268 10.1783 116.012 10.5791C114.12 13.5299 113.135 16.7749 114.587 20.026C114.818 20.5435 114.586 21.1504 114.069 21.3817C113.551 21.6129 112.944 21.3808 112.713 20.8632C111.402 17.9282 111.696 15.0695 112.702 12.5162C109.809 13.8819 106.711 14.635 103.381 13.5242C102.843 13.3449 102.553 12.7636 102.732 12.2259C102.912 11.6882 103.493 11.3977 104.031 11.5771C107.584 12.7623 110.926 11.3471 114.622 9.14369C115.031 8.89993 115.554 8.96936 115.885 9.3114Z" fill="#221F20"/>
<path fill-rule="evenodd" clip-rule="evenodd" d="M39.5421 0.676159L40.6132 0.790294C44.2243 1.17508 47.4161 2.29794 49.6842 4.61764C53.0279 3.84641 57.0502 3.79954 60.6503 6.25402L59.494 7.95C56.3673 5.8183 52.7709 5.92178 49.6006 6.75203L48.9828 6.91384L48.5647 6.43098C46.9384 4.55267 44.5332 3.45561 41.4827 2.97425C41.3937 6.4867 41.9148 9.18916 43.1546 10.9231L43.4912 11.3939L43.2626 11.9255C42.1663 14.475 42.0467 16.8712 43.0311 19.2607L41.1332 20.0426C39.9784 17.2394 40.0797 14.4372 41.1647 11.6339C39.6371 9.14476 39.2542 5.65085 39.4799 1.75154L39.5421 0.676159Z" fill="#221F20"/>
<path fill-rule="evenodd" clip-rule="evenodd" d="M46.164 8.98759C46.4984 8.64785 47.0227 8.58309 47.4297 8.83127C51.0341 11.029 54.38 12.4441 57.9293 11.2594C58.467 11.08 59.0483 11.3703 59.2278 11.908C59.4072 12.4457 59.1169 13.027 58.5792 13.2065C55.2463 14.319 52.1446 13.5627 49.2779 12.1916C50.2728 14.8399 50.5881 17.8884 49.3343 20.7735C49.1084 21.2934 48.5039 21.5317 47.984 21.3058C47.4641 21.0799 47.2258 20.4753 47.4517 19.9555C48.8365 16.7689 47.8356 13.1178 46.0277 10.2557C45.7731 9.85261 45.8296 9.32733 46.164 8.98759Z" fill="#221F20"/>
<path fill-rule="evenodd" clip-rule="evenodd" d="M76.5077 81.4081C75.2647 74.0855 74.158 67.5659 79.1669 67.6535C85.3625 68.1115 84.3525 75.3508 83.2756 83.0689C82.5007 88.6233 81.6912 94.4256 83.5077 98.1268C88.401 108.389 99.4475 109.812 105.208 102.075C107.416 98.4418 112.309 94.8112 117.123 93.3109C126.274 90.2329 127.536 79.1808 119.173 71.3643C116.052 68.3809 109.914 67.3185 104.268 66.3412C97.0655 65.0947 90.6634 63.9866 92.3438 59.207C93.7066 54.4117 99.9959 57.3158 106.977 60.5395C112.522 63.1 118.504 65.862 122.801 65.1282C134.162 63.6278 138.895 53.366 133.294 45.5494C130.219 41.5237 128.246 35.7601 128.561 31.4995C128.324 21.8676 118.382 17.2893 108.441 22.8955C104.731 24.9369 101.668 30.2985 98.8072 35.3055C95.0355 41.9071 91.6159 47.8923 87.5306 44.8393C83.4264 42.0441 88.142 37.4344 93.4537 32.2421C97.7398 28.0523 102.414 23.4833 103.155 19.182C105.283 7.9724 96.6845 -0.236517 87.4505 2.60386C83.5049 4.26167 77.4291 4.26167 72.6159 2.60386C63.4648 -0.236517 56.3638 7.73755 58.4941 18.9471C59.2502 23.179 63.3475 27.635 67.1169 31.7343C71.9981 37.0426 76.3294 41.753 72.1434 44.6045C68.11 47.6633 64.998 41.7318 61.5211 35.1051C58.8078 29.9336 55.8722 24.3386 52.1032 22.2627C42.1592 16.6566 32.0603 21.8676 31.8227 31.4995C32.1377 35.7601 30.1649 41.5237 27.0896 45.5494C21.489 53.3632 26.6144 63.4703 37.8986 65.048C42.147 65.6712 47.8945 62.9781 53.219 60.4834C60.0525 57.2814 66.1892 54.4061 67.5651 59.2871C69.3245 63.9927 62.6587 65.1215 55.1946 66.3855C49.2605 67.3904 42.8218 68.4808 39.7111 71.5218C31.5077 79.4958 33.9557 90.628 43.1068 93.6259C47.2873 94.5736 52.258 98.0467 55.2558 102.153C61.0968 109.809 72.0633 107.913 76.7189 97.4941C78.573 93.5753 77.4972 87.2373 76.5077 81.4081Z M115.067 43.2589 C110.019 47.5222 103.943 50.0476 96.2866 49.7326 C101.733 44.4442 108.123 42.8638 115.067 43.2589Z M101.97 85.1766 C96.3695 81.6261 92.109 76.6527 90.1334 69.2312 C96.7619 72.8618 100.235 78.468 101.97 85.1766Z M57.6237 85.5717C59.0467 78.8603 62.2822 73.0994 68.7504 69.2285C67.0954 76.6527 63.0696 81.8637 57.6237 85.5717Z M44.3695 43.2589C51.2329 42.8638 57.6237 44.4442 63.0696 49.7326C55.4161 50.0476 49.4203 47.5222 44.3695 43.2589Z M79.7997 39.153C77.1942 32.7594 76.6416 26.2055 79.7997 19.3395C82.6373 26.4432 82.1648 32.997 79.7997 39.153Z M87.6109 54.8635 C87.6109 59.1268 84.1377 62.5999 79.7997 62.5999 C75.5364 62.5999 72.0661 59.1268 72.0661 54.8635 C72.0661 50.5228 75.5364 47.0469 79.7997 47.0469 C84.1377 47.0469 87.6109 50.52 87.6109 54.8635Z" fill="#D51B30"/>
<path fill-rule="evenodd" clip-rule="evenodd" d="M79.7997 47.0469C84.1377 47.0469 87.6109 50.52 87.6109 54.8635C87.6109 59.1268 84.1377 62.5999 79.7997 62.5999C75.5364 62.5999 72.0661 59.1268 72.0661 54.8635C72.0661 50.5228 75.5364 47.0469 79.7997 47.0469Z" fill="#FEB442"/>
<path fill-rule="evenodd" clip-rule="evenodd" d="M51.0398 70.8932C51.2115 71.5693 50.8025 72.2566 50.1264 72.4283C45.3487 73.6414 43.4917 76.6459 42.7295 78.9389C42.3281 80.1807 42.3761 80.9364 42.5425 81.4027C42.702 81.8501 43.0381 82.2205 43.6362 82.5559C44.2561 82.9034 45.0685 83.1623 46.0394 83.4034C46.3932 83.4913 46.801 83.5836 47.2228 83.679C47.8404 83.8188 48.4881 83.9654 49.0403 84.1148L49.0415 84.1151C53.9899 85.4594 58.4321 88.6408 61.2128 93.0176C61.545 93.5228 61.8929 94.1101 62.2242 94.6692C62.4259 95.0095 62.6213 95.3395 62.8033 95.6341C63.3292 96.4856 63.8233 97.1866 64.3441 97.6798C64.8486 98.1576 65.3027 98.3699 65.769 98.3913C66.2498 98.4135 66.9665 98.243 68.0061 97.5007C69.8992 96.0735 72.0261 93.0889 71.5957 88.3721C71.5323 87.6774 72.0441 87.0629 72.7388 86.9995C73.4335 86.9361 74.0481 87.4479 74.1115 88.1426C74.6307 93.833 72.0311 97.6374 69.5117 99.5292L69.4891 99.5463L69.4889 99.546C68.1668 100.493 66.8942 100.972 65.6529 100.915C64.3953 100.857 63.3946 100.26 62.607 99.514C61.8357 98.7835 61.2006 97.8466 60.654 96.9616C60.4137 96.5725 60.1985 96.2082 59.9921 95.8587C59.692 95.3507 59.4104 94.874 59.097 94.3979L59.0853 94.3802L59.0855 94.3801C56.6549 90.5499 52.7448 87.7391 48.3799 86.5532C47.8367 86.4062 47.323 86.2911 46.7789 86.1691C46.3569 86.0746 45.9167 85.9759 45.4305 85.8551C44.4161 85.6032 43.3296 85.2801 42.4008 84.7594C41.4503 84.2265 40.5879 83.4423 40.1631 82.2514C39.7452 81.0799 39.8229 79.7149 40.3276 78.1563L40.3304 78.1474L40.3305 78.1475C41.2989 75.2299 43.7086 71.4515 49.5047 69.9798C50.1808 69.8081 50.8681 70.217 51.0398 70.8932Z" fill="#221F20"/>
<path fill-rule="evenodd" clip-rule="evenodd" d="M108.32 70.893C108.491 70.2169 109.179 69.808 109.855 69.9798C115.648 71.4516 118.057 75.2301 119.028 78.1463L119.032 78.1568C119.536 79.7155 119.613 81.0806 119.195 82.2519C118.769 83.4425 117.907 84.2265 116.956 84.7594C116.028 85.2801 114.941 85.6032 113.927 85.8551C113.442 85.9758 113.002 86.0744 112.58 86.1689C112.036 86.291 111.522 86.4062 110.979 86.5533C106.614 87.7391 102.702 90.55 100.271 94.3801L100.26 94.398C99.9462 94.8741 99.6644 95.3509 99.3642 95.8592C99.1579 96.2085 98.9428 96.5727 98.7026 96.9616C98.1561 97.8466 97.5211 98.7834 96.75 99.5139C95.9627 100.26 94.9622 100.857 93.7049 100.915C92.4638 100.972 91.1916 100.493 89.8702 99.5458L89.848 99.5299C87.3249 97.6375 84.729 93.8326 85.2451 88.1432C85.3081 87.4485 85.9224 86.9364 86.6172 86.9994C87.3119 87.0624 87.824 87.6767 87.761 88.3715C87.333 93.0896 89.4582 96.0741 91.3531 97.5005C92.3922 98.243 93.1084 98.4135 93.5887 98.3913C94.0544 98.3699 94.5083 98.1577 95.0127 97.6799C95.5333 97.1867 96.0274 96.4856 96.5532 95.6342C96.7352 95.3396 96.9305 95.0099 97.1321 94.6697C97.4634 94.1104 97.8114 93.523 98.1437 93.0176C100.925 88.6406 105.37 85.4593 110.318 84.1151C110.87 83.9656 111.519 83.8187 112.136 83.6788C112.558 83.5835 112.965 83.4912 113.318 83.4034C114.289 83.1623 115.101 82.9034 115.721 82.5559C116.319 82.2205 116.656 81.8499 116.815 81.4022C116.982 80.9359 117.03 80.1805 116.63 78.9393C115.865 76.6451 114.007 73.6412 109.233 72.4283C108.557 72.2565 108.148 71.5691 108.32 70.893Z" fill="#221F20"/>
<path fill-rule="evenodd" clip-rule="evenodd" d="M118.679 26.3356C117.692 25.5805 116.371 25.2483 114.744 25.2698L114.724 25.2701L114.724 25.2702C111.647 25.3595 107.346 26.5265 104.15 31.5371C103.774 32.1252 103.947 32.9061 104.535 33.2812C105.123 33.6564 105.904 33.4838 106.279 32.8956C108.92 28.7552 112.339 27.8688 114.787 27.7957C116.072 27.7801 116.762 28.0496 117.145 28.3423C117.514 28.6249 117.764 29.0562 117.903 29.7359C118.045 30.4383 118.046 31.299 117.983 32.3052C117.961 32.6703 117.926 33.0843 117.891 33.5122C117.838 34.1489 117.783 34.8162 117.759 35.3983C117.51 40.5324 119.274 45.7319 122.547 49.6806L122.553 49.6884L122.553 49.6884C122.906 50.1072 123.345 50.5887 123.765 51.0493C124.069 51.3831 124.363 51.7059 124.607 51.986C125.265 52.7406 125.783 53.4202 126.091 54.0597C126.388 54.6776 126.447 55.1677 126.321 55.6139C126.19 56.0798 125.796 56.7153 124.746 57.4848L124.734 57.4931L124.734 57.4932C122.864 58.8955 119.387 60.0023 115.003 58.2028C114.357 57.9379 113.619 58.2463 113.354 58.8917C113.09 59.537 113.398 60.2749 114.043 60.5398C119.282 62.6898 123.692 61.4293 126.244 59.5185C127.559 58.5539 128.416 57.4942 128.753 56.2994C129.096 55.0832 128.839 53.945 128.367 52.9642C127.905 52.005 127.2 51.1153 126.511 50.3257C126.166 49.9299 125.853 49.5885 125.554 49.2616C125.19 48.8649 124.847 48.4896 124.489 48.0647C121.614 44.5937 120.064 40.0105 120.283 35.5161L120.283 35.5058L120.283 35.5058C120.306 34.9371 120.352 34.4015 120.4 33.8346C120.436 33.4046 120.474 32.9567 120.505 32.4628C120.57 31.4139 120.591 30.2765 120.378 29.2322C120.161 28.1654 119.681 27.1018 118.679 26.3356Z" fill="#221F20"/>
<path fill-rule="evenodd" clip-rule="evenodd" d="M96.5829 9.57846C97.6214 10.2572 98.3769 11.3892 98.9049 12.9284L98.9085 12.9391L98.9085 12.9392C99.8714 15.8309 100.301 20.3406 96.5606 24.9512C96.1212 25.4929 95.3257 25.5758 94.784 25.1363C94.2422 24.6969 94.1593 23.9014 94.5988 23.3597C97.6477 19.6012 97.2845 16.0619 96.5134 13.7425C96.0941 12.5225 95.6071 11.9586 95.2008 11.6931C94.8103 11.4378 94.3227 11.3461 93.6437 11.4416C92.9411 11.5404 92.1375 11.8261 91.22 12.2227C90.8206 12.3953 90.4195 12.5799 90.0052 12.7705C89.9497 12.7961 89.894 12.8217 89.838 12.8474C89.3709 13.0621 88.8875 13.2824 88.4089 13.4804L88.3809 13.4919L88.3808 13.4916C83.6054 15.3337 78.1617 15.4227 73.3682 13.657C72.8043 13.4527 72.1742 13.1918 71.5752 12.9438C71.1932 12.7857 70.8239 12.6327 70.4924 12.5031C69.5562 12.1368 68.7427 11.8769 68.0365 11.8019C67.3562 11.7296 66.8732 11.8384 66.4895 12.1115C66.0873 12.3977 65.6126 12.9936 65.2263 14.2585C64.556 16.4697 64.6409 20.1022 67.8685 23.6159C68.3404 24.1297 68.3065 24.9287 67.7928 25.4006C67.279 25.8725 66.48 25.8386 66.0081 25.3249C62.1297 21.1027 61.8993 16.5241 62.8091 13.5242L62.8098 13.522C63.291 11.9458 64.0094 10.7758 65.0248 10.0532C66.0589 9.31732 67.2182 9.17452 68.3034 9.28978C69.3628 9.40231 70.4381 9.76912 71.4129 10.1505C71.8571 10.3243 72.2611 10.4923 72.6492 10.6538C73.1859 10.877 73.6921 11.0875 74.2317 11.283L74.2385 11.2854C78.4358 12.8324 83.241 12.7626 87.4575 11.1401C87.8815 10.9643 88.3203 10.7647 88.7829 10.5521C88.8377 10.5269 88.8929 10.5015 88.9485 10.4759C89.3598 10.2866 89.7893 10.089 90.2177 9.9038C91.1787 9.48845 92.2389 9.0881 93.2918 8.93998C94.3684 8.78855 95.5282 8.88904 96.5829 9.57846Z" fill="#221F20"/>
<path fill-rule="evenodd" clip-rule="evenodd" d="M41.8712 26.0111C42.8587 25.256 44.179 24.9237 45.8066 24.9453L45.8264 24.9455L45.8264 24.9457C48.9036 25.0349 53.2047 26.2019 56.4009 31.2125C56.7761 31.8006 56.6034 32.5815 56.0153 32.9567C55.4272 33.3319 54.6463 33.1592 54.2711 32.5711C51.6299 28.4307 48.2114 27.5443 45.7632 27.4712C44.478 27.4555 43.7887 27.725 43.4059 28.0178C43.0364 28.3003 42.7862 28.7316 42.6479 29.4114C42.5049 30.1137 42.5042 30.9745 42.567 31.9807C42.5898 32.3458 42.6241 32.7598 42.6595 33.1876C42.7121 33.8243 42.7673 34.4916 42.7911 35.0737C43.0401 40.2078 41.276 45.4074 38.0036 49.356L37.9971 49.3638L37.997 49.3638C37.6442 49.7826 37.2055 50.2641 36.7858 50.7248C36.4817 51.0586 36.1876 51.3814 35.9434 51.6614C35.2854 52.416 34.7677 53.0956 34.4598 53.7352C34.1624 54.3531 34.1034 54.8431 34.2292 55.2894C34.3605 55.7552 34.7547 56.3907 35.8049 57.1603L35.8162 57.1686L35.8161 57.1686C37.6859 58.571 41.1635 59.6777 45.5478 57.8782C46.1932 57.6133 46.9311 57.9218 47.1959 58.5671C47.4608 59.2125 47.1524 59.9504 46.507 60.2152C41.2689 62.3652 36.858 61.1048 34.3061 59.1939C32.9915 58.2294 32.1346 57.1697 31.7977 55.9749C31.4548 54.7587 31.7114 53.6205 32.1835 52.6396C32.6452 51.6804 33.3508 50.7908 34.0394 50.0011C34.3845 49.6054 34.6972 49.2639 34.9965 48.9371C35.3599 48.5403 35.7036 48.165 36.0617 47.7402C38.9366 44.2691 40.4868 39.686 40.2677 35.1916L40.2672 35.1813L40.2672 35.1813C40.2441 34.6126 40.1988 34.0769 40.1508 33.5101C40.1145 33.0801 40.0766 32.6321 40.0457 32.1382C39.9802 31.0893 39.9599 29.9519 40.1724 28.9077C40.3894 27.8408 40.8695 26.7772 41.8712 26.0111Z" fill="#221F20"/>
<path fill-rule="evenodd" clip-rule="evenodd" d="M69.2127 68.5884C69.4684 68.7731 69.5896 69.0923 69.521 69.4002C67.8183 77.0382 63.6641 82.414 58.0681 86.2242C57.8017 86.4056 57.4517 86.4068 57.184 86.2272C56.9163 86.0476 56.7848 85.7233 56.8516 85.4079C58.3091 78.5337 61.6474 72.5594 68.3452 68.5511C68.6158 68.3891 68.9569 68.4038 69.2127 68.5884Z M67.4741 71.0087 C62.9544 74.2542 60.3297 78.6054 58.9087 83.6495 C62.8602 80.5187 65.8645 76.4263 67.4741 71.0087Z" fill="#221F20"/>
<path fill-rule="evenodd" clip-rule="evenodd" d="M89.6467 68.6099C89.8953 68.415 90.236 68.3871 90.513 68.5388C97.3744 72.2969 100.958 78.1103 102.735 84.9788C102.816 85.2925 102.697 85.6239 102.435 85.8146C102.173 86.0053 101.822 86.0167 101.548 85.8432C95.8021 82.2007 91.404 77.0717 89.371 69.4342C89.2897 69.129 89.3982 68.8048 89.6467 68.6099Z M100.594 83.282C98.9417 78.2681 96.1355 74.0362 91.4838 70.9642C93.3253 76.3453 96.5078 80.2794 100.594 83.282Z" fill="#221F20"/>
<path fill-rule="evenodd" clip-rule="evenodd" d="M95.7372 49.1664C101.378 43.6882 108.005 42.0664 115.112 42.4708C115.435 42.4892 115.714 42.7024 115.816 43.0089C115.918 43.3155 115.824 43.6535 115.577 43.862C110.393 48.24 104.128 50.8453 96.2547 50.5214C95.9395 50.5084 95.6623 50.309 95.5497 50.0143C95.4372 49.7196 95.5109 49.3861 95.7372 49.1664Z M112.86 43.9914C107.553 44.0285 102.664 45.4065 98.3352 48.9593C104.029 48.8069 108.773 46.9751 112.86 43.9914Z" fill="#221F20"/>
<path fill-rule="evenodd" clip-rule="evenodd" d="M79.82 18.5503C80.1354 18.5583 80.4158 18.7535 80.5329 19.0466C83.4542 26.3599 82.9629 33.1212 80.5367 39.4361C80.4205 39.7384 80.1316 39.9391 79.8078 39.9423C79.4839 39.9456 79.191 39.7508 79.0688 39.4509C76.4004 32.9031 75.8137 26.1166 79.0826 19.0095C79.2145 18.7228 79.5045 18.5422 79.82 18.5503Z M79.7499 21.5323C77.8454 26.7683 78.1136 31.8246 79.7741 36.8135C81.2559 31.9872 81.4742 26.9266 79.7499 21.5323Z" fill="#221F20"/>
<path fill-rule="evenodd" clip-rule="evenodd" d="M44.3246 42.4708C51.3532 42.0662 57.9796 43.689 63.62 49.1664C63.8464 49.3861 63.9201 49.7196 63.8076 50.0143C63.695 50.309 63.4178 50.5084 63.1026 50.5214C55.2302 50.8454 49.0453 48.2384 43.8608 43.8621C43.6139 43.6537 43.5189 43.3158 43.6211 43.0093C43.7233 42.7027 44.002 42.4894 44.3246 42.4708Z M61.0221 48.9593C56.6994 45.4108 51.8226 44.0322 46.5753 43.9915C50.6521 46.9757 55.3439 48.8064 61.0221 48.9593Z" fill="#221F20"/>
<path fill-rule="evenodd" clip-rule="evenodd" d="M79.8001 48.0732C76.1111 48.0732 73.0927 51.0819 73.0927 54.8635C73.0927 58.5604 76.104 61.5736 79.8001 61.5736C83.5776 61.5736 86.5848 58.5535 86.5848 54.8635C86.5848 51.0863 83.5707 48.0732 79.8001 48.0732ZM71.0401 54.8635C71.0401 49.9636 74.9623 46.0206 79.8001 46.0206C84.7053 46.0206 88.6375 49.9536 88.6375 54.8635C88.6375 59.7 84.6984 63.6262 79.8001 63.6262C74.9694 63.6262 71.0401 59.6931 71.0401 54.8635Z" fill="#221F20"/>  
<path fill-rule="evenodd" clip-rule="evenodd" d="M62.098 6.18157C59.6954 8.93448 58.4829 13.3897 59.5027 18.7554L59.5048 18.7665L59.5047 18.7666C59.8921 20.9347 61.2906 23.2704 63.2089 25.7079C64.6241 27.5062 66.2507 29.2752 67.8498 31.0144C68.4113 31.6249 68.9693 32.2319 69.5137 32.8351C71.5571 35.0995 73.4556 37.3613 74.3301 39.4296C74.7753 40.4828 75.0012 41.5884 74.7602 42.6721C74.5151 43.7747 73.8227 44.6966 72.743 45.438C71.6829 46.2354 70.5683 46.5827 69.427 46.4181C68.3142 46.2575 67.3376 45.6325 66.4845 44.8204C64.8019 43.2189 63.2562 40.5491 61.7503 37.7361C61.3664 37.0189 60.9831 36.2884 60.5978 35.554C59.4365 33.3407 58.2564 31.0917 56.9832 29.0629C55.2784 26.3464 53.5155 24.212 51.6084 23.1617L51.5995 23.1568L51.5995 23.1567C46.8786 20.4952 42.2211 20.4496 38.7642 22.0936C35.331 23.7264 32.9756 27.0686 32.8503 31.4763C33.1675 36.0276 31.0907 41.9961 27.9153 46.1596C25.3528 49.7436 25.2616 53.7976 27.0664 57.1508C28.8821 60.5243 32.6759 63.2814 38.041 64.0315L38.0479 64.0325C40.1982 64.3479 42.9016 63.7087 45.9195 62.567C48.1681 61.7163 50.4791 60.6336 52.755 59.5673C53.5166 59.2104 54.2742 58.8555 55.0243 58.5116C57.949 57.171 60.818 55.9698 63.145 55.704C64.3241 55.5694 65.4875 55.6581 66.4777 56.199C67.4904 56.7522 68.1744 57.6963 68.5415 58.9677C68.9975 60.2115 68.9981 61.3778 68.482 62.4139C67.9796 63.4226 67.0632 64.1518 66.0108 64.705C63.9307 65.7986 60.8462 66.4406 57.6351 67.0078C56.8782 67.1414 56.1104 67.2715 55.3384 67.4022C52.7614 67.8387 50.1383 68.2831 47.7233 68.896C44.5637 69.6979 41.9783 70.7409 40.4288 72.2556L40.4267 72.2577C36.5383 76.0374 35.2475 80.482 35.9121 84.2621C36.5737 88.0248 39.1873 91.2453 43.3828 92.6361C47.8316 93.6625 52.9716 97.2881 56.0783 101.538C58.766 105.055 62.5725 106.335 66.2289 105.596C69.9072 104.852 73.5673 102.032 75.7822 97.0754L75.7913 97.055L75.7915 97.0551C76.7139 95.1056 76.8535 92.3604 76.5789 89.1672C76.3686 86.7216 75.9307 84.1415 75.5007 81.6078C75.3728 80.854 75.2456 80.1044 75.1253 79.3637C74.6124 76.206 74.2099 73.137 74.5634 70.8496C74.7425 69.6905 75.1331 68.6009 75.9219 67.8053C76.7382 66.9819 77.8492 66.604 79.1852 66.6273L79.2141 66.6278L79.2429 66.63C80.7539 66.7417 81.9827 67.2195 82.9209 68.0631C83.8507 68.8992 84.4063 70.0148 84.7237 71.2475C85.3458 73.6631 85.1166 76.802 84.7238 79.9941C84.5907 81.0763 84.4383 82.1679 84.286 83.259C83.9768 85.474 83.6678 87.6871 83.5206 89.8156C83.3007 92.9969 83.4712 95.7224 84.4293 97.6746L84.4344 97.685C86.7584 102.559 90.4847 105.228 94.1991 105.838C97.889 106.443 101.7 105.042 104.358 101.499C106.725 97.6368 111.817 93.8932 116.806 92.3347C120.996 90.9214 123.322 87.7291 123.695 84.012C124.071 80.2601 122.463 75.844 118.472 72.1141L118.464 72.1061C116.889 70.6007 114.357 69.5771 111.308 68.7938C109.016 68.2049 106.549 67.7778 104.124 67.358C103.338 67.222 102.557 67.0868 101.788 66.9471C98.7192 66.3898 95.7673 65.7512 93.7752 64.6467C92.7626 64.0852 91.8902 63.3467 91.4157 62.3347C90.9317 61.3026 90.9337 60.1424 91.3656 58.8961C91.7365 57.6152 92.4453 56.6777 93.4906 56.1448C94.5025 55.6288 95.692 55.5638 96.8991 55.7173C99.2896 56.0214 102.25 57.2576 105.273 58.6279C105.988 58.9518 106.709 59.2847 107.433 59.6193C109.84 60.7304 112.284 61.859 114.646 62.7294C117.74 63.8697 120.485 64.4825 122.628 64.1164L122.666 64.1099L122.666 64.1106C128.059 63.3985 131.765 60.6303 133.494 57.2409C135.218 53.863 135.042 49.7588 132.469 46.1592C129.294 41.9957 127.217 36.0275 127.534 31.4763C127.41 27.072 125.098 23.9009 121.728 22.4231C118.319 20.928 113.689 21.1144 108.946 23.7894L108.936 23.7946L108.936 23.7946C107.015 24.8516 105.196 26.97 103.409 29.6459C102.123 31.5711 100.913 33.6901 99.7164 35.784C99.2568 36.5883 98.7994 37.389 98.3406 38.1735C96.7246 40.9369 95.0662 43.5487 93.2989 45.1101C92.4033 45.9014 91.3971 46.4992 90.2751 46.6492C89.1248 46.8029 88.0016 46.4666 86.9346 45.6748C85.8419 44.9252 85.1638 43.9775 84.9903 42.8359C84.8223 41.7299 85.1568 40.6192 85.7006 39.5787C86.7749 37.5228 88.9272 35.2664 91.2176 32.9991C91.7228 32.499 92.2375 31.9959 92.7549 31.49C94.6372 29.6499 96.5566 27.7734 98.1935 25.874C100.295 23.4355 101.78 21.1236 102.144 19.0076L102.147 18.9905L102.147 18.9905C103.154 13.6877 101.614 9.18136 98.831 6.34268C96.0618 3.51839 92.019 2.29069 87.7994 3.57049C83.5829 5.32145 77.2799 5.29115 72.2976 3.57956C68.1004 2.28207 64.4705 3.46322 62.098 6.18157ZM60.5515 4.83187C63.4821 1.474 67.9726 0.0878929 72.9205 1.62363L72.9506 1.63299L72.9504 1.63345C77.5727 3.22551 83.383 3.19976 87.0533 1.65763L87.1003 1.63786L87.1491 1.62286C92.1466 0.0856373 97.0003 1.54358 100.297 4.90561C103.588 8.26206 105.284 13.4616 104.166 19.3647C103.698 22.0617 101.889 24.7307 99.7484 27.2141C98.0482 29.1869 96.0439 31.146 94.1533 32.9939C93.6452 33.4905 93.1453 33.9792 92.6617 34.4579C90.3265 36.7696 88.4204 38.8059 87.5198 40.5293C87.0761 41.3784 86.944 42.029 87.0197 42.5276C87.089 42.9841 87.3582 43.4799 88.1087 43.991L88.1273 44.0037L88.1453 44.0172C88.8689 44.5579 89.4711 44.6857 90.0032 44.6146C90.5702 44.5388 91.2102 44.2164 91.9398 43.5719C93.4227 42.2617 94.9301 39.9394 96.5687 37.1374C97.0041 36.3927 97.4474 35.6168 97.8988 34.8268C99.1073 32.7115 100.374 30.4951 101.702 28.5058C103.518 25.7865 105.564 23.309 107.942 21.9988C113.138 19.0701 118.448 18.7433 122.553 20.5432C126.686 22.3556 129.459 26.2718 129.588 31.4741L129.589 31.5247L129.585 31.5751C129.293 35.5337 131.153 41.055 134.11 44.9264L134.129 44.9513L134.129 44.9516C137.149 49.1657 137.404 54.0953 135.323 58.1738C133.248 62.2402 128.913 65.3509 122.954 66.1431C120.248 66.5988 117.073 65.8115 113.936 64.6554C111.49 63.7539 108.942 62.5772 106.522 61.4597C105.81 61.131 105.11 60.8074 104.426 60.4975C101.354 59.1049 98.6728 58.0121 96.6401 57.7536C95.6356 57.6258 94.918 57.721 94.4229 57.9734C93.9694 58.2047 93.5742 58.633 93.3313 59.4875L93.3228 59.5178L93.3123 59.5474C93.005 60.4215 93.0652 61.0177 93.2742 61.4633C93.4964 61.9371 93.9632 62.4039 94.7705 62.8515C96.4182 63.7651 99.0294 64.36 102.155 64.9275C102.886 65.0603 103.642 65.1912 104.412 65.3244C106.855 65.7472 109.439 66.1944 111.819 66.8057C114.932 67.6055 117.902 68.7319 119.878 70.6186C124.248 74.7045 126.189 79.7209 125.737 84.217C125.282 88.7467 122.404 92.6172 117.45 94.2836L117.428 94.2909L117.428 94.2907C112.813 95.7293 108.143 99.2221 106.086 102.608L106.061 102.649L106.032 102.688C102.93 106.854 98.351 108.599 93.8669 107.863C89.3959 107.13 85.1536 103.959 82.584 98.5737C81.3742 96.1044 81.2491 92.9103 81.4729 89.6741C81.6249 87.4757 81.9513 85.1351 82.2659 82.8786C82.4154 81.8065 82.5623 80.7533 82.6865 79.7435C83.083 76.5213 83.2484 73.7494 82.7359 71.7594C82.4861 70.7892 82.0921 70.0783 81.5484 69.5894C81.0175 69.112 80.2572 68.7681 79.1208 68.6793C78.2253 68.6689 77.7111 68.916 77.3795 69.2504C77.0169 69.6162 76.7372 70.2227 76.592 71.163C76.2966 73.0745 76.6288 75.8176 77.1514 79.0346C77.2662 79.7417 77.3897 80.4689 77.5153 81.2085C77.9479 83.7566 78.4057 86.4527 78.624 88.9913C78.9035 92.2423 78.8165 95.4528 77.6518 97.9227C75.2105 103.379 71.0619 106.713 66.6355 107.608C62.1874 108.507 57.5932 106.908 54.4402 102.775L54.4271 102.758L54.4272 102.758C51.5489 98.8156 46.778 95.5104 42.8802 94.6268L42.8333 94.6162L42.7876 94.6012C37.8577 92.9861 34.6876 89.151 33.8905 84.6176C33.0942 80.0887 34.6811 74.9801 38.996 70.7858C40.9584 68.8687 44.0044 67.7222 47.2183 66.9065C49.722 66.271 52.4596 65.8075 55.051 65.3687C55.809 65.2404 56.5545 65.1142 57.278 64.9864C60.5472 64.409 63.3067 63.8076 65.0557 62.8882C65.9179 62.4349 66.4123 61.9652 66.6447 61.4987C66.8579 61.0707 66.923 60.4994 66.6041 59.6465L66.5892 59.6066L66.5776 59.5656C66.3298 58.6866 65.9347 58.2413 65.4937 58.0004C65.0195 57.7413 64.3369 57.6339 63.3779 57.7434C61.4287 57.966 58.853 59.0146 55.8797 60.3776C55.1653 60.7051 54.4307 61.0493 53.6832 61.3995C51.39 62.4741 48.9749 63.6057 46.6458 64.4869C43.5755 65.6484 40.4527 66.4588 37.7534 66.0639C31.8361 65.2357 27.4264 62.1508 25.2589 58.1236C23.0821 54.0793 23.2262 49.1782 26.2558 44.9515L26.274 44.9261L26.2744 44.9264C29.2317 41.055 31.0922 35.5337 30.7995 31.5751L30.7958 31.5247L30.797 31.4741C30.9253 26.274 33.7334 22.2132 37.8826 20.24C42.0193 18.2726 47.3814 18.4239 52.6032 21.3662C54.9934 22.6844 56.9861 25.206 58.7218 27.9718C60.0413 30.0743 61.275 32.4259 62.445 34.6559C62.823 35.3766 63.1945 36.0845 63.56 36.7673C65.0917 39.6285 66.4949 41.9965 67.8997 43.3336C68.5901 43.9908 69.1918 44.3102 69.7201 44.3864C70.2123 44.4575 70.7946 44.3395 71.5235 43.7867L71.5443 43.7709L71.5659 43.7562C72.3286 43.2367 72.6473 42.7177 72.7565 42.2266C72.8715 41.7095 72.7905 41.0592 72.4394 40.2289C71.7213 38.5302 70.0691 36.5145 67.9898 34.2103C67.4742 33.6389 66.9347 33.0522 66.3845 32.4538C64.7706 30.6989 63.0642 28.8432 61.5958 26.9773C59.6344 24.485 57.9666 21.8192 57.4851 19.1332C56.3763 13.2917 57.6493 8.15724 60.5515 4.83187Z" fill="#221F20"/>
</svg>
