<svg width="151" height="198" viewBox="0 0 151 198" fill="none" xmlns="http://www.w3.org/2000/svg">
<path fill-rule="evenodd" clip-rule="evenodd" d="M98.4787 74.6662C107.63 69.69 116.151 59.3508 127.756 58.0881C141.09 55.9578 153.869 73.7986 148.031 86.7433C137.614 108.687 144.243 114.451 140.222 126.846C135.484 140.661 115.759 147.847 102.27 138.135C95.6439 133.4 94.7735 128.189 89.7227 123.848C84.8294 119.742 81.4392 123.373 82.1465 129.136C84.8294 147.845 92.331 188.107 74.8881 195.288C64.0018 199.317 62.8966 192.053 64.8666 184.634C66.9195 168.529 74.7306 151.08 71.2575 131.032C70.0722 123.295 63.1315 119.112 54.4501 131.664C40.483 152.583 16.8151 144.217 11.0542 127.086C7.03122 114.771 13.5768 108.85 3.24314 86.9036C-2.59512 73.9561 10.1065 56.1153 23.5237 58.3285C35.12 59.5912 43.5638 69.6928 52.7149 74.669C61.9462 78.2996 63.7614 73.6411 57.2131 65.4294C53.5051 60.771 50.1923 58.5633 46.0091 54.615C34.4099 43.4855 28.8866 28.2475 35.2001 15.7753C47.2717 -6.4891 64.629 5.19569 75.5982 4.72321C86.4071 5.27306 103.369 -6.72396 115.916 15.7753C122.23 28.2475 116.709 43.4828 105.107 54.615C100.924 58.5633 97.6913 60.7737 93.9032 65.4294C87.3521 73.6383 89.2447 78.2968 98.4787 74.6662Z" fill="#007241"/>
<path d="M63.0513 191.263C64.8638 181.396 86.1694 178.948 83.8015 187.397L81.2816 187.712C85.1443 182.424 62.2638 185.107 66.2867 194.186L63.0513 191.263Z" fill="#221F20"/>
<path fill-rule="evenodd" clip-rule="evenodd" d="M75.5929 6.10607C72.7149 6.21823 69.4807 5.56209 66.2568 4.90801L66.0814 4.87241C62.7037 4.18738 59.2552 3.49656 55.7975 3.45868C52.3679 3.42111 48.9865 4.02929 45.7595 5.91483C42.5323 7.80048 39.3482 11.0289 36.424 16.4165C30.5172 28.1095 35.5865 42.6974 46.9614 53.6141C48.2085 54.791 49.4097 55.8355 50.5867 56.8589C53.1964 59.128 55.6868 61.2935 58.294 64.569C59.9805 66.684 61.1818 68.6344 61.8559 70.3402C62.5101 71.9959 62.767 73.6794 62.1392 75.0614C61.4507 76.5771 59.9557 77.2256 58.2881 77.2921C56.6468 77.3576 54.5958 76.8932 52.2093 75.9546L52.1299 75.9234L52.055 75.8826C49.6811 74.5917 47.3757 72.9812 45.1039 71.3058C44.3108 70.7208 43.5267 70.1319 42.744 69.5439C41.2566 68.4266 39.7739 67.3128 38.2421 66.2365C33.5893 62.9675 28.8156 60.2944 23.3741 59.7019L23.3363 59.6977L23.2988 59.6916C17.2854 58.6996 11.2235 62.1936 7.28877 67.731C3.36273 73.2561 1.84334 80.4263 4.498 86.3256L4.49304 86.315L4.50255 86.3357L4.498 86.3256C9.7438 97.4698 10.733 104.622 10.8962 110.569C10.935 111.982 10.9298 113.297 10.9248 114.559C10.9088 118.628 10.8949 122.146 12.3655 126.651L12.3636 126.646L12.3674 126.657L12.3655 126.651C15.0918 134.751 22.054 140.766 29.9367 142.287C37.7295 143.792 46.6006 140.933 53.3012 130.897L53.3137 130.878C57.7066 124.527 62.0564 121.803 65.8691 122.373C69.7336 122.951 71.9903 126.716 72.621 130.809L72.6188 130.796L72.6231 130.822L72.621 130.809C74.3963 141.07 73.2781 150.632 71.4891 159.582C70.8241 162.909 70.061 166.175 69.3179 169.356C69.0634 170.445 68.8113 171.524 68.5662 172.592C67.6013 176.799 66.7412 180.854 66.2371 184.809L66.2255 184.9L66.2019 184.989C65.7295 186.768 65.455 188.49 65.452 189.998C65.449 191.522 65.723 192.709 66.2299 193.525C66.6996 194.282 67.4296 194.824 68.6491 194.999C69.9302 195.183 71.7851 194.961 74.3853 194.001C74.3776 194.005 74.3699 194.008 74.3622 194.011L74.4087 193.993C74.4009 193.996 74.3931 193.999 74.3853 194.001C78.23 192.409 80.8175 188.963 82.4489 184.113C84.0869 179.243 84.6981 173.126 84.683 166.538C84.6574 155.311 82.8217 143.042 81.4437 133.833C81.2044 132.233 80.9789 130.726 80.779 129.332L80.775 129.305C80.3969 126.223 81.0514 123.274 82.9627 121.719C83.9597 120.908 85.2129 120.563 86.577 120.765C87.9031 120.961 89.2628 121.659 90.6108 122.79L90.6233 122.8C92.9927 124.836 94.5098 127.07 95.9535 129.195C96.151 129.486 96.347 129.775 96.5437 130.06C98.1867 132.448 99.9528 134.781 103.073 137.011L103.077 137.014C109.412 141.576 117.247 142.195 124.106 139.998C130.978 137.796 136.707 132.823 138.912 126.408L138.908 126.419L138.916 126.397L138.912 126.408C140.377 121.884 140.354 118.377 140.327 114.337C140.319 113.072 140.31 111.756 140.347 110.34C140.499 104.419 141.49 97.3049 146.777 86.1632L146.771 86.1753L146.783 86.1509L146.777 86.1632C149.429 80.2685 147.893 73.1005 143.957 67.563C140.01 62.0112 133.946 58.4982 127.974 59.4523L127.94 59.4577L127.905 59.4615C122.466 60.0532 117.675 62.7798 112.999 66.1099C111.487 67.1864 110.025 68.2973 108.56 69.4109C107.746 70.0288 106.932 70.6477 106.107 71.262C103.828 72.9602 101.516 74.5874 99.1387 75.8798L99.0637 75.9206L98.9843 75.9519C96.5959 76.8909 94.5402 77.3547 92.8923 77.2894C91.2203 77.2231 89.7209 76.5782 89.0191 75.0706C88.376 73.6892 88.6207 72.0029 89.2691 70.3435C89.9366 68.6351 91.135 66.6833 92.8234 64.5677L92.8316 64.5575C95.4967 61.282 97.9604 59.1241 100.557 56.8502C101.72 55.8317 102.909 54.7899 104.155 53.614L104.151 53.6181L104.159 53.6103L104.155 53.614C115.53 42.6969 120.597 28.1155 114.696 16.4236C114.701 16.4318 114.705 16.4399 114.71 16.4481L114.684 16.3992C114.688 16.4073 114.692 16.4155 114.696 16.4236C111.653 10.9754 108.405 7.72039 105.149 5.82825C101.895 3.93675 98.5237 3.3435 95.1283 3.39952C91.7025 3.45603 88.3061 4.16953 84.978 4.86997L84.8945 4.88755C81.6919 5.56165 78.4696 6.23987 75.5929 6.10607ZM106.537 3.43939C110.324 5.64008 113.896 9.31572 117.123 15.1024L117.136 15.1266L117.149 15.1513C123.854 28.3984 117.881 44.2726 106.064 55.6118L106.056 55.6196C104.655 56.9413 103.391 58.0469 102.197 59.092C99.6931 61.2823 97.4934 63.2067 94.9789 66.2962C93.394 68.2829 92.3737 69.9899 91.8426 71.3491C91.2919 72.7585 91.3586 73.5491 91.524 73.9046C91.6308 74.1339 91.9264 74.4859 93.0017 74.5285C94.0879 74.5716 95.7056 74.2642 97.8939 73.4115C100.067 72.222 102.228 70.7065 104.457 69.0462C105.236 68.4655 106.03 67.8623 106.835 67.2509C108.326 66.1182 109.854 64.9572 111.396 63.8592C116.16 60.4662 121.421 57.3969 127.572 56.7184C134.922 55.5612 141.899 59.8994 146.209 65.9621C150.533 72.0448 152.469 80.2636 149.29 87.3113L149.279 87.3359C144.155 98.1309 143.252 104.868 143.109 110.411C143.077 111.659 143.086 112.876 143.095 114.085C143.125 118.223 143.155 122.281 141.537 127.272L141.529 127.294C138.993 134.689 132.492 140.212 124.949 142.629C117.39 145.05 108.619 144.407 101.466 139.259C97.9606 136.754 95.9788 134.114 94.2675 131.627C94.0608 131.326 93.8592 131.03 93.6603 130.738C92.2062 128.602 90.8988 126.682 88.8283 124.901L88.8348 124.906L88.8223 124.896L88.8283 124.901C87.7325 123.983 86.8357 123.596 86.1733 123.498C85.5476 123.406 85.0799 123.559 84.7061 123.863C83.8772 124.537 83.1909 126.28 83.5161 128.955L83.5141 128.94L83.5178 128.968L83.5161 128.955C83.7116 130.317 83.9337 131.8 84.1704 133.381C85.5474 142.576 87.4199 155.081 87.446 166.532C87.4614 173.246 86.8451 179.71 85.0677 184.994C83.2869 190.288 80.2781 194.563 75.4141 196.566L75.391 196.575L75.3676 196.584C72.537 197.632 70.1786 198.01 68.2561 197.734C66.2682 197.448 64.8038 196.466 63.8826 194.983C62.9987 193.559 62.6854 191.791 62.689 189.992C62.6926 188.206 63.0088 186.271 63.5078 184.369C63.5039 184.399 63.5001 184.429 63.4962 184.46L63.4405 184.369L63.5314 184.28C63.5235 184.309 63.5156 184.339 63.5078 184.369C64.0316 180.3 64.9119 176.165 65.8732 171.975C66.1235 170.883 66.379 169.79 66.6355 168.692C67.3758 165.523 68.1242 162.32 68.7797 159.041C70.5403 150.232 71.591 141.05 69.8963 131.267L69.8917 131.241C69.3342 127.602 67.5289 125.415 65.4606 125.106C63.3373 124.789 59.8782 126.248 55.5925 132.441L55.5991 132.432L55.5863 132.45L55.5925 132.441C48.3265 143.317 38.3835 146.732 29.413 145C20.5315 143.286 12.7807 136.554 9.74475 127.526L9.74098 127.515C8.11783 122.546 8.13716 118.48 8.15696 114.317C8.1627 113.109 8.16848 111.893 8.13421 110.645C7.98113 105.067 7.07682 98.2885 1.99327 87.4921L1.98359 87.4715C-1.19372 80.4252 0.719232 72.2062 5.03647 66.1305C9.33993 60.0743 16.3209 55.7588 23.7107 56.9592C23.6982 56.9578 23.6857 56.9564 23.6732 56.9551L23.7485 56.9654C23.7359 56.9633 23.7233 56.9612 23.7107 56.9592C29.8495 57.6375 35.0842 60.641 39.8305 63.9757C41.3955 65.0753 42.9436 66.238 44.4546 67.3729C45.2284 67.954 45.9924 68.5279 46.7439 69.0821C48.966 70.7209 51.1237 72.2235 53.2999 73.4143C53.2735 73.4041 53.2471 73.3937 53.2206 73.3833L53.2999 73.4143L53.3749 73.4553C53.3499 73.4417 53.3249 73.428 53.2999 73.4143C55.4886 74.2674 57.1003 74.5743 58.178 74.5313C59.2425 74.4888 59.5229 74.1402 59.6236 73.9186C59.785 73.5634 59.8449 72.7695 59.2862 71.3556C58.7474 69.9922 57.7203 68.2812 56.133 66.2907C53.6845 63.2146 51.4827 61.3026 48.9745 59.1248C47.7625 58.0725 46.4788 56.958 45.0608 55.6196L45.0526 55.6118C33.2378 44.2754 27.2618 28.3984 33.9676 15.1513L33.9852 15.1165C37.0942 9.38227 40.6037 5.72727 44.3655 3.52921C48.131 1.32903 52.0379 0.654311 55.8277 0.695829C59.5894 0.73704 63.2914 1.48731 66.6306 2.16453C70.0413 2.85626 73.0006 3.45229 75.5388 3.34296L75.6036 3.34017L75.6684 3.34346C78.1548 3.46994 81.0507 2.87299 84.409 2.16619L84.5051 2.14596C87.7647 1.45987 91.3848 0.697879 95.0827 0.636875C98.8472 0.574771 102.745 1.23524 106.537 3.43939Z" fill="#221F20"/>
<path fill-rule="evenodd" clip-rule="evenodd" d="M75.6745 20.4926L76.2169 22.4003C77.1174 25.567 77.326 29.1851 77.5368 32.8419L77.5509 33.0857C77.7563 36.6424 77.9784 40.234 78.8312 43.5559C80.8502 41.2951 84.12 37.0176 85.8777 32.4797L86.2315 31.5662L86.4779 32.5143C86.7582 33.5934 86.5406 34.7966 86.0667 36.0933C85.5919 37.3927 84.8414 38.8328 84.0048 40.3986C83.9141 40.5683 83.8223 40.7397 83.7297 40.9126C82.1103 43.9363 80.2281 47.4508 79.2288 51.5011C79.1873 53.552 79.1465 55.8099 79.1057 58.0701C79.0775 59.6319 79.0493 61.1947 79.0208 62.6911C79.6975 61.4977 80.4737 60.7896 81.3564 59.9843C81.7063 59.6651 82.073 59.3305 82.4569 58.9444C84.1358 57.2557 86.2866 54.4731 89.1178 47.473L90.1598 44.8966L89.7224 47.6411C88.9237 52.6535 87.407 57.6081 83.0993 62.637C77.9221 68.5992 78.0519 74.4132 78.1745 79.8445C78.1861 80.3576 78.1976 80.8672 78.2045 81.3733L78.2048 81.3936C77.9294 86.8421 78.3451 95.0526 78.7025 102.1C78.8396 104.804 78.968 107.337 79.0454 109.477C79.5802 108.876 80.0602 108.317 80.5106 107.792C82.4385 105.547 83.8251 103.933 86.647 102.339L86.6645 102.329C89.0124 101.194 90.7124 99.1959 92.6165 96.9573L92.6873 96.8741C94.6086 94.6156 96.728 92.1495 99.8948 90.2629L102.071 88.9667L100.28 90.7575C97.9555 93.0817 96.1143 95.0054 95.2126 98.2299C100.576 96.8783 103.703 95.9403 106.168 94.7967C108.704 93.6205 110.552 92.2218 113.43 89.8936L113.442 89.8838C114.901 88.8177 116.707 87.5079 118.565 86.3753C120.418 85.2459 122.349 84.2757 124.059 83.9092L126.3 83.4289L124.272 84.4974C120.096 86.6987 115.231 90.6874 109.827 96.5569C117.047 96.7775 124.122 95.6794 131.053 93.5452L132.817 93.002L131.334 94.1008C127.782 96.7325 123.712 97.7157 116.754 98.5557C120.067 100.766 122.111 103.278 123.597 105.43L124.535 106.787L123.162 105.872C122.105 105.167 121.067 104.427 120.046 103.699C119.578 103.365 119.113 103.034 118.651 102.71C117.178 101.674 115.728 100.704 114.261 99.9189C111.332 98.3512 108.359 97.536 105.033 98.4157C104.234 98.6201 103.238 98.847 102.179 99.0884C102.004 99.1284 101.827 99.1687 101.649 99.2095C100.39 99.4971 99.0655 99.8046 97.8631 100.124C96.6574 100.444 95.5891 100.772 94.8364 101.099C94.4608 101.262 94.1833 101.417 94.0083 101.558C98.5312 102.092 101.319 103.662 103.367 105.681C104.419 106.719 105.269 107.869 106.054 109.038C106.37 109.507 106.672 109.974 106.972 110.439C107.427 111.143 107.878 111.841 108.366 112.531L110.032 114.885L107.896 112.947C107.246 112.358 106.603 111.758 105.961 111.16C104.912 110.183 103.866 109.21 102.806 108.291C101.103 106.814 99.3912 105.506 97.6342 104.605C95.88 103.706 94.0919 103.219 92.229 103.369C90.3676 103.519 88.3992 104.307 86.2878 106.012L86.2791 106.019C83.4796 108.122 80.3656 111.548 78.4198 116.062C78.298 116.443 78.1595 116.763 77.9964 116.999C77.8332 117.236 77.6133 117.433 77.3216 117.469C77.0281 117.504 76.7648 117.363 76.5445 117.161C76.3223 116.956 76.1022 116.653 75.8797 116.266L75.8691 116.247L75.861 116.228C73.9923 111.628 70.8728 108.119 68.0755 106.019L68.0666 106.013C65.9545 104.307 63.9858 103.52 62.1244 103.37C60.2613 103.221 58.4734 103.708 56.7196 104.607C54.963 105.507 53.2522 106.815 51.5492 108.291C50.4887 109.211 49.4428 110.185 48.3931 111.163C47.7521 111.76 47.1097 112.359 46.4617 112.947L44.3279 114.883L45.9916 112.531C46.4781 111.843 46.9278 111.146 47.3817 110.443C47.6825 109.978 47.9851 109.509 48.3015 109.038C49.0866 107.869 49.9361 106.72 50.9887 105.682C53.036 103.663 55.8252 102.093 60.35 101.558C60.1752 101.416 59.8975 101.261 59.5211 101.098C58.7687 100.771 57.7007 100.443 56.4952 100.123C55.293 99.8037 53.9689 99.4965 52.7099 99.2091C52.5309 99.1682 52.3532 99.1278 52.1773 99.0877C51.1188 98.8466 50.1265 98.6207 49.3267 98.4164C46.0006 97.5367 43.0255 98.3512 40.0964 99.9189C38.6296 100.704 37.1803 101.674 35.707 102.71C35.2445 103.035 34.7789 103.367 34.3098 103.701C33.2901 104.429 32.254 105.168 31.1976 105.872L29.8306 106.784L30.7623 105.43C32.2423 103.28 34.2222 100.766 37.5948 98.554C30.6437 97.7121 26.5763 96.7311 23.0208 94.101L21.5345 93.0016L23.3015 93.5452C30.2375 95.6794 37.3106 96.7775 44.53 96.5569C39.1235 90.6874 34.2617 86.6987 30.0849 84.4974L28.0577 83.4289L30.2984 83.9092C32.0086 84.2757 33.9391 85.2466 35.7908 86.3764C37.6477 87.5093 39.4528 88.8194 40.9122 89.884L40.9249 89.8932C43.8042 92.2215 45.652 93.6207 48.1783 94.7969C50.6358 95.9411 53.7457 96.8794 59.0789 98.232C58.2459 95.0073 56.4018 93.0871 54.0747 90.7574L52.2889 88.9697L54.4597 90.2629C57.6265 92.1494 59.7473 94.6155 61.6696 96.8741L61.7416 96.9587C63.6462 99.1967 65.3465 101.195 67.6926 102.33L67.7108 102.339C69.5664 103.387 70.8551 104.619 72.0823 106.026C72.5797 106.596 73.0694 107.199 73.5809 107.828C73.6978 107.971 73.8158 108.116 73.9353 108.263C74.4318 108.871 74.9564 109.506 75.5388 110.169C75.6597 101.787 75.3527 88.7091 74.8981 80.378C72.9566 77.5254 71.9476 73.5908 70.9826 69.6716C70.9463 69.5242 70.9101 69.3769 70.8739 69.2296C69.9313 65.3952 68.9994 61.6043 67.2811 58.7252L66.712 57.7716L67.6977 58.283C68.8542 58.883 69.8338 60.2178 70.6752 61.7998C71.5236 63.3953 72.2622 65.3031 72.9092 67.1216C73.1714 67.8584 73.4175 68.5773 73.65 69.2565C73.9955 70.2657 74.3109 71.1871 74.6042 71.9488C74.8493 72.5852 75.0704 73.0865 75.27 73.4199C75.2936 73.4592 75.3163 73.4952 75.3381 73.5281C75.7131 69.4834 76.0892 65.433 76.5396 61.3823C75.6743 59.6004 74.8027 57.5977 73.9501 55.6386C73.3393 54.2349 72.7382 52.8536 72.156 51.5919L72.1513 51.5818C71.6125 50.2962 71.03 48.4897 70.3863 46.494C70.0352 45.4056 69.666 44.261 69.2758 43.1137C68.1613 39.8369 66.871 36.5211 65.3196 34.2735L64.3517 32.8712L65.7579 33.8334C67.3157 34.8995 68.5236 36.5226 69.5288 38.3995C70.5346 40.2775 71.35 42.4335 72.11 44.5862C72.2923 45.1026 72.4713 45.6184 72.649 46.1304C73.2149 47.761 73.7672 49.3526 74.3702 50.8012C75.0129 52.3454 75.7029 53.7004 76.5073 54.7442C76.4127 52.6683 76.3053 50.5454 76.1967 48.3991C75.7525 39.6175 75.2885 30.4425 75.5976 22.4744L75.6745 20.4926Z" fill="#221F20"/>
</svg>
